<?xml version="1.0" encoding="UTF-8" standalone="no"?>
<!-- Created with Inkscape (http://www.inkscape.org/) -->

<svg
   xmlns:dc="http://purl.org/dc/elements/1.1/"
   xmlns:cc="http://creativecommons.org/ns#"
   xmlns:rdf="http://www.w3.org/1999/02/22-rdf-syntax-ns#"
   xmlns:svg="http://www.w3.org/2000/svg"
   xmlns="http://www.w3.org/2000/svg"
   xmlns:xlink="http://www.w3.org/1999/xlink"
   xmlns:sodipodi="http://sodipodi.sourceforge.net/DTD/sodipodi-0.dtd"
   xmlns:inkscape="http://www.inkscape.org/namespaces/inkscape"
   width="64"
   height="128.00002"
   id="svg3816"
   version="1.1"
   inkscape:version="0.48.2 r9819"
   sodipodi:docname="icons.svg"
   inkscape:export-filename="/Users/stuartlowe/Projects/design-a-space-telescope/images/icons.png"
   inkscape:export-xdpi="135.00002"
   inkscape:export-ydpi="135.00002">
  <defs
     id="defs3818">
    <inkscape:perspective
       sodipodi:type="inkscape:persp3d"
       inkscape:vp_x="0 : 64.000008 : 1"
       inkscape:vp_y="0 : 1000 : 0"
       inkscape:vp_z="64 : 64.000008 : 1"
       inkscape:persp3d-origin="32 : 42.666672 : 1"
       id="perspective3924" />
    <linearGradient
       id="linearGradient3775">
      <stop
         id="stop3777"
         offset="0"
         style="stop-color:#939393;stop-opacity:1;" />
      <stop
         id="stop3779"
         offset="1"
         style="stop-color:#f0f0f0;stop-opacity:1;" />
    </linearGradient>
    <linearGradient
       gradientTransform="matrix(0.73584906,0,0,1.0260417,69.831162,551.34231)"
       gradientUnits="userSpaceOnUse"
       y2="213.05951"
       x2="64.520844"
       y1="31.139874"
       x1="64.520836"
       id="linearGradient3781"
       xlink:href="#linearGradient3775-7"
       inkscape:collect="always" />
    <linearGradient
       id="linearGradient3775-7">
      <stop
         id="stop3777-3"
         offset="0"
         style="stop-color:#939393;stop-opacity:1;" />
      <stop
         id="stop3779-6"
         offset="1"
         style="stop-color:#f0f0f0;stop-opacity:1;" />
    </linearGradient>
  </defs>
  <sodipodi:namedview
     id="base"
     pagecolor="#ffffff"
     bordercolor="#666666"
     borderopacity="1.0"
     inkscape:pageopacity="0.0"
     inkscape:pageshadow="2"
     inkscape:zoom="5.6568542"
     inkscape:cx="39.521726"
     inkscape:cy="31.922643"
     inkscape:document-units="px"
     inkscape:current-layer="layer1"
     showgrid="true"
     inkscape:window-width="1280"
     inkscape:window-height="756"
     inkscape:window-x="0"
     inkscape:window-y="0"
     inkscape:window-maximized="0"
     fit-margin-top="0"
     fit-margin-left="0"
     fit-margin-right="0"
     fit-margin-bottom="0"
     showguides="true"
     inkscape:guide-bbox="true"
     inkscape:snap-global="true">
    <inkscape:grid
       type="xygrid"
       id="grid3826"
       empspacing="2"
       visible="true"
       enabled="true"
       snapvisiblegridlinesonly="true"
       spacingx="0.5px"
       spacingy="0.5px" />
  </sodipodi:namedview>
  <metadata
     id="metadata3821">
    <rdf:RDF>
      <cc:Work
         rdf:about="">
        <dc:format>image/svg+xml</dc:format>
        <dc:type
           rdf:resource="http://purl.org/dc/dcmitype/StillImage" />
        <dc:title></dc:title>
      </cc:Work>
    </rdf:RDF>
  </metadata>
  <g
     inkscape:label="Layer 1"
     inkscape:groupmode="layer"
     id="layer1"
     transform="translate(0,-1036.3622)">
    <path
       style="fill:#f6f6f6;fill-opacity:1;stroke:none"
       d="m 56.03125,33.000015 c -3.865994,0 -7.03125,2.8579 -7.03125,7 C 49,44.142215 52.134006,47 56,47 c 3.865994,0 7,-2.857785 7,-6.999985 0,-4.1421 -3.102756,-7 -6.96875,-7 z m -0.03125,2 c 2,0 4.53125,1.500015 4.03125,4.000015 -1,2.5 -3.0625,0.99997 -3.0625,2.99997 l -2,0 c 0,-2.4915 1.03125,-1.999985 2.53125,-2.999985 1,-0.5 0,-2 -1.5,-2 -1.5,0 -2,1 -2,2 l -2,0 c 0,-2.5 2,-4 4,-4 z M 55.96875,43 c 0.552285,0 1,0.4477 1,1 0,0.5523 -0.447715,1 -1,1 -0.552285,0 -1,-0.4477 -1,-1 0,-0.5523 0.447715,-1 1,-1 z"
       transform="translate(0,1036.3622)"
       id="path3856"
       inkscape:connector-curvature="0"
       sodipodi:nodetypes="ssssssccccsccssssss" />
    <path
       style="fill:#f6f6f6;stroke:none;stroke-width:1px;stroke-linecap:butt;stroke-linejoin:miter;stroke-opacity:1;fill-opacity:1"
       d="M 33 1 L 33 15 L 33.5 15 L 47 15 L 47 4.5 L 43.5 1 L 33 1 z M 36 9 L 44 9 L 44 14 L 36 14 L 36 9 z M 37 10 L 37 11 L 43 11 L 43 10 L 37 10 z M 37 12 L 37 13 L 43 13 L 43 12 L 37 12 z "
       transform="translate(0,1036.3622)"
       id="path4011" />
    <path
       style="fill:#f6f6f6;fill-opacity:1;stroke:none"
       d="m 33,1117.3622 0,10 3,0 0,4 11,0 0,-11 -4,0 0,-3 -10,0 z m 2,2 6,0 0,1 -5,0 0,2 0,3 -1,0 0,-6 z m 3,3 7,0 0,7 -7,0 0,-7 z m 1,1 0,1 5,0 0,-1 -5,0 z m 0,2 0,1 5,0 0,-1 -5,0 z m 0,2 0,1 5,0 0,-1 -5,0 z"
       id="path3925"
       inkscape:connector-curvature="0" />
    <path
       style="fill:#f6f6f6;fill-opacity:1;stroke:none"
       d="m 22,1148.3622 0,2.2188 c -0.440982,0.1259 -0.861798,0.3055 -1.25,0.5312 l -1.75,-1.75 -2,2 1.75,1.75 c -0.225708,0.3882 -0.405347,0.809 -0.53125,1.25 l -2.21875,0 0,3 2.21875,0 c 0.125903,0.441 0.305542,0.8618 0.53125,1.25 l -1.75,1.75 2,2 1.75,-1.75 c 0.388202,0.2257 0.809018,0.4054 1.25,0.5313 l 0,2.2187 3,0 0,-2.2187 c 0.440982,-0.1259 0.861798,-0.3056 1.25,-0.5313 l 1.75,1.75 2,-2 -1.75,-1.75 c 0.225708,-0.3882 0.405347,-0.809 0.53125,-1.25 l 2.21875,0 0,-3 -2.21875,0 c -0.125903,-0.441 -0.305542,-0.8618 -0.53125,-1.25 l 1.75,-1.75 -2,-2 -1.75,1.75 c -0.388202,-0.2257 -0.809018,-0.4053 -1.25,-0.5312 l 0,-2.2188 -3,0 z m 1.5,4 c 2.025044,0 3.5,1.475 3.5,3.5 0,2.0251 -1.474956,3.5 -3.5,3.5 -2.025044,0 -3.5,-1.4749 -3.5,-3.5 0,-2.025 1.474956,-3.5 3.5,-3.5 z"
       id="rect3917"
       inkscape:connector-curvature="0" />
    <path
       sodipodi:nodetypes="ccccccc"
       inkscape:connector-curvature="0"
       id="path3881"
       d="m 8,1136.3622 -7,7 2.5,0 4.5,-4.5 4.5,4.5 2.5,0 z"
       style="fill:#f6f6f6;fill-opacity:1;stroke:none" />
    <path
       style="fill:#f6f6f6;fill-opacity:1;stroke:none"
       d="m 3.999985,1124.3622 7,7 0,-2.5 -4.5,-4.5 4.5,-4.5 0,-2.5 z"
       id="path3875"
       inkscape:connector-curvature="0"
       sodipodi:nodetypes="ccccccc" />
    <path
       sodipodi:nodetypes="ccccccc"
       inkscape:connector-curvature="0"
       id="path3869"
       d="m 8,1112.3622 7,-7 -2.5,0 -4.5,4.5 -4.5,-4.5 -2.5,0 z"
       style="fill:#f6f6f6;fill-opacity:1;stroke:none" />
    <path
       style="fill:#f6f6f6;fill-opacity:1;stroke:none"
       d="m 3,1041.3622 2,-2 2.5,2.5 2.5,-2.5 2,2 -2.5,2.5 2.5,2.5 -2,2 -2.5,-2.5 -2.5,2.5 -2,-2 2.5,-2.5 z"
       id="path5996"
       inkscape:connector-curvature="0"
       sodipodi:nodetypes="ccccccccccccc" />
    <g
       id="g6051"
       style="fill:none"
       transform="translate(0,-15.999983)">
      <rect
         style="fill:none;stroke:none"
         id="rect6006"
         width="16"
         height="16"
         x="0"
         y="1084.3622"
         ry="0.066356063" />
      <rect
         style="fill:none;stroke:none"
         id="rect5932"
         width="16"
         height="16"
         x="0"
         y="1052.3622"
         ry="0.066356063" />
      <rect
         style="fill:none;stroke:none"
         id="rect5972"
         width="16"
         height="16"
         x="16"
         y="1068.3622"
         ry="0.066356063" />
      <rect
         ry="0.066356063"
         y="1052.3622"
         x="32"
         height="16"
         width="16"
         id="rect5974"
         style="fill:none;stroke:none" />
      <rect
         ry="0.066356063"
         y="1084.3622"
         x="32"
         height="16"
         width="16"
         id="rect6008"
         style="fill:none;stroke:none" />
      <rect
         style="fill:none;stroke:none"
         id="rect6010"
         width="16"
         height="16"
         x="16"
         y="1100.3622"
         ry="0.066356063" />
      <rect
         transform="matrix(0,-1,1,0,0,0)"
         ry="0.066356063"
         y="6.9337189e-14"
         x="-1132.3622"
         height="16"
         width="16"
         id="rect6012"
         style="fill:none;stroke:none" />
      <rect
         style="fill:none;stroke:none"
         id="rect6014"
         width="16"
         height="16"
         x="32"
         y="1116.3622"
         ry="0.066356063" />
      <rect
         ry="0.066356063"
         y="1132.3622"
         x="16"
         height="16"
         width="16"
         id="rect6037"
         style="fill:none;stroke:none" />
      <rect
         style="fill:none;stroke:none"
         id="rect6039"
         width="16"
         height="16"
         x="-1164.3622"
         y="6.9337189e-14"
         ry="0.066356063"
         transform="matrix(0,-1,1,0,0,0)" />
      <rect
         ry="0.066356063"
         y="1148.3622"
         x="32"
         height="16"
         width="16"
         id="rect6041"
         style="fill:none;stroke:none" />
    </g>
    <path
       sodipodi:nodetypes="ccccc"
       inkscape:connector-curvature="0"
       id="path3080"
       d="m 12,1075.3622 0,3 c -3.333333,0 -5.666667,0 -9,0 l 0,-3 c 3.333333,0 5.666667,0 9,0 z"
       style="fill:#f6f6f6;fill-opacity:1;stroke:none" />
    <path
       style="fill:#f6f6f6;fill-opacity:1;stroke:none"
       d="m 6,1055.3622 3,0 0,3 3,0 0,3 -3,0 0,3 -3,0 0,-3 -3,0 0,-3 3,0 z"
       id="path3082"
       inkscape:connector-curvature="0"
       sodipodi:nodetypes="ccccccccccccc" />
    <text
       xml:space="preserve"
       style="font-size:40px;font-style:normal;font-variant:normal;font-weight:normal;font-stretch:normal;line-height:125%;letter-spacing:0px;word-spacing:0px;fill:#000000;fill-opacity:1;stroke:none;font-family:Century Gothic;-inkscape-font-specification:Century Gothic"
       x="50.940369"
       y="20.206964"
       id="text5513"
       sodipodi:linespacing="125%"
       transform="translate(0,1052.3622)"><tspan
         sodipodi:role="line"
         id="tspan5515"
         x="50.940369"
         y="20.206964" /></text>
    <path
       inkscape:connector-curvature="0"
       style="fill:#f6f6f6;fill-opacity:1;stroke:none"
       d="m 39,1101.3622 c -2.761424,0 -5,2.2386 -5,5 0,2.7614 2.238576,5 5,5 2.761424,0 5,-2.2386 5,-5 0,-2.7614 -2.238576,-5 -5,-5 z m 0,2 c 1.5,0 3,1 3,3 0,2 -1.5,3 -3,3 -1.5,0 -3,-1 -3,-3 0,-2 1.5,-3 3,-3 z"
       id="path4056"
       sodipodi:nodetypes="ssssszzzzz" />
    <path
       style="fill:#f6f6f6;fill-opacity:1;stroke:none"
       d="m 46.5,1112.8622 -1.5,1.5 -4,-4 1.5,-1.5 z"
       id="path4070"
       inkscape:connector-curvature="0" />
    <g
       id="g3375"
       style="fill:#f6f6f6;fill-opacity:1">
      <path
         sodipodi:nodetypes="ccccccccccccccccccccccccc"
         inkscape:connector-curvature="0"
         id="path3102"
         transform="translate(0,1036.3622)"
         d="m 34,100 0,11 12,0 0,-11 z m 1,1.00002 1,0 0,9 -1,0 z m 3,0 1,0 0,9 -1,0 z m 3,0 1,0 0,9 -1,0 z m 3,0 1,0 0,9 -1,0 z"
         style="fill:#f6f6f6;fill-opacity:1;stroke:none" />
      <path
         sodipodi:nodetypes="cccscccc"
         inkscape:connector-curvature="0"
         id="path3885"
         d="m 33,1136.3622 0,-2 4,0 c 0,0 1.5,-1 3,-1 1.5,0 3,1 3,1 l 4,0 0,2 z"
         style="fill:#f6f6f6;fill-opacity:1;stroke:none" />
    </g>
    <path
       style="fill:#f6f6f6;fill-opacity:1;stroke:none"
       d="m 40,47.000015 c 0,0 7,-2.000017 7,-7.000017 0,-5 -4,-7 -7,-7 -3,0 -5,2 -5,2 l -2,-2 0,8 8,0 -2,-2 c 0,0 0.5,-1.5 2,-1.5 1.5,0 3,0.5 3,3.5 0,3 -4,6.000017 -4,6.000017 z"
       id="path4656"
       inkscape:connector-curvature="0"
       transform="translate(0,1036.3622)"
       sodipodi:nodetypes="czzccccczzc" />
    <path
       style="fill:#f6f6f6;fill-opacity:1;stroke:none"
       d="m 12,1092.3622 -7,-7 0,2.5 4.5,4.5 -4.5,4.5 0,2.5 z"
       id="path3079"
       inkscape:connector-curvature="0"
       sodipodi:nodetypes="ccccccc" />
    <rect
       y="1148.3622"
       x="48"
       height="16"
       width="16"
       id="rect3076"
       style="fill:#000000;fill-opacity:0.13777777;stroke:none" />
    <rect
       style="fill:#000000;fill-opacity:0.13777777;stroke:none"
       id="rect3080"
       width="16"
       height="16"
       x="48"
       y="1116.3622" />
    <g
       id="g3097"
       transform="translate(-3,2.5000153)" />
    <g
       id="g4032"
       style="fill:#f6f6f6;fill-opacity:1"
       transform="translate(-0.14121215,16.484755)">
      <path
         id="path4024"
         transform="translate(0,1036.3622)"
         d="M 61,0.5 48.5,13 51,15.5 63.5,3 61,0.5 z m 0,1 L 62.5,3 60.75,4.75 59.25,3.25 61,1.5 z m -9.75,9.75 1.5,1.5 L 51,14.5 49.5,13 51.25,11.25 z"
         style="fill:#f6f6f6;fill-opacity:1;stroke:none"
         inkscape:connector-curvature="0" />
      <path
         sodipodi:type="star"
         style="fill:#f6f6f6;fill-opacity:1;stroke:none"
         id="path3883"
         sodipodi:sides="5"
         sodipodi:cx="60.5"
         sodipodi:cy="1.5000153"
         sodipodi:r1="3.6400549"
         sodipodi:r2="1.5845937"
         sodipodi:arg1="1.2924967"
         sodipodi:arg2="1.9208152"
         inkscape:flatsided="false"
         inkscape:rounded="0.1"
         inkscape:randomized="0"
         d="M 61.5,5.0000153 C 61.256218,5.0696673 60.194782,3.0754708 59.956618,2.988529 59.718454,2.9015872 57.621895,3.7429579 57.480319,3.5326312 57.338743,3.3223044 58.907335,1.6965786 58.916425,1.4432045 c 0.0091,-0.253374 -1.438974,-1.98732248 -1.28269,-2.18696356 0.156283,-0.19964108 2.187162,0.78980155 2.430944,0.72014957 0.243782,-0.06965198 1.445388,-1.98266171 1.683552,-1.89571991 0.238165,0.086942 -0.07527,2.32417674 0.0663,2.53450351 0.141575,0.21032678 2.332273,0.76197019 2.323183,1.01534419 -0.0091,0.2533741 -2.233685,0.6466187 -2.389968,0.8462598 -0.156284,0.1996411 -0.004,2.4535852 -0.247747,2.5232372 z"
         transform="matrix(0.78502359,-0.12553558,0.12553558,0.78502359,4.3507742,1046.921)" />
      <path
         transform="matrix(0.49536964,-0.07921611,0.07921611,0.49536964,31.747652,1048.132)"
         d="M 61.5,5.0000153 C 61.256218,5.0696673 60.194782,3.0754708 59.956618,2.988529 59.718454,2.9015872 57.621895,3.7429579 57.480319,3.5326312 57.338743,3.3223044 58.907335,1.6965786 58.916425,1.4432045 c 0.0091,-0.253374 -1.438974,-1.98732248 -1.28269,-2.18696356 0.156283,-0.19964108 2.187162,0.78980155 2.430944,0.72014957 0.243782,-0.06965198 1.445388,-1.98266171 1.683552,-1.89571991 0.238165,0.086942 -0.07527,2.32417674 0.0663,2.53450351 0.141575,0.21032678 2.332273,0.76197019 2.323183,1.01534419 -0.0091,0.2533741 -2.233685,0.6466187 -2.389968,0.8462598 -0.156284,0.1996411 -0.004,2.4535852 -0.247747,2.5232372 z"
         inkscape:randomized="0"
         inkscape:rounded="0.1"
         inkscape:flatsided="false"
         sodipodi:arg2="1.9208152"
         sodipodi:arg1="1.2924967"
         sodipodi:r2="1.5845937"
         sodipodi:r1="3.6400549"
         sodipodi:cy="1.5000153"
         sodipodi:cx="60.5"
         sodipodi:sides="5"
         id="path3886"
         style="fill:#f6f6f6;fill-opacity:1;stroke:none"
         sodipodi:type="star" />
      <path
         sodipodi:type="star"
         style="fill:#f6f6f6;fill-opacity:1;stroke:none"
         id="path3908"
         sodipodi:sides="5"
         sodipodi:cx="60.5"
         sodipodi:cy="1.5000153"
         sodipodi:r1="3.6400549"
         sodipodi:r2="1.5845937"
         sodipodi:arg1="1.2924967"
         sodipodi:arg2="1.9208152"
         inkscape:flatsided="false"
         inkscape:rounded="0.1"
         inkscape:randomized="0"
         d="M 61.5,5.0000153 C 61.256218,5.0696673 60.194782,3.0754708 59.956618,2.988529 59.718454,2.9015872 57.621895,3.7429579 57.480319,3.5326312 57.338743,3.3223044 58.907335,1.6965786 58.916425,1.4432045 c 0.0091,-0.253374 -1.438974,-1.98732248 -1.28269,-2.18696356 0.156283,-0.19964108 2.187162,0.78980155 2.430944,0.72014957 0.243782,-0.06965198 1.445388,-1.98266171 1.683552,-1.89571991 0.238165,0.086942 -0.07527,2.32417674 0.0663,2.53450351 0.141575,0.21032678 2.332273,0.76197019 2.323183,1.01534419 -0.0091,0.2533741 -2.233685,0.6466187 -2.389968,0.8462598 -0.156284,0.1996411 -0.004,2.4535852 -0.247747,2.5232372 z"
         transform="matrix(0.29752649,-0.47751384,0.47751384,0.29752649,37.781653,1066.5662)" />
    </g>
    <path
       style="fill:#f6f6f6;fill-opacity:1;stroke:none"
       d="m 48,1038.3622 16,0 0,2 -16,0 z"
       id="rect3927"
       inkscape:connector-curvature="0"
       sodipodi:nodetypes="ccccc" />
    <path
       style="fill:#f6f6f6;fill-opacity:1;stroke:none"
       d="m 48,1043.3622 16,0 0,2 -16,0 z"
       id="rect3929"
       inkscape:connector-curvature="0"
       sodipodi:nodetypes="ccccc" />
    <path
       style="fill:#f6f6f6;fill-opacity:1;stroke:none"
       d="m 48,1048.3622 16,0 0,2 -16,0 z"
       id="rect3933"
       inkscape:connector-curvature="0"
       sodipodi:nodetypes="ccccc" />
    <text
       xml:space="preserve"
       style="font-size:40px;font-style:normal;font-variant:normal;font-weight:normal;font-stretch:normal;line-height:125%;letter-spacing:0px;word-spacing:0px;fill:#000000;fill-opacity:1;stroke:none;font-family:Century Gothic;-inkscape-font-specification:Century Gothic"
       x="69.375"
       y="42.625015"
       id="text3869"
       sodipodi:linespacing="125%"
       transform="translate(0,1036.3622)"><tspan
         sodipodi:role="line"
         id="tspan3871" /></text>
    <path
       style="fill:#f6f6f6;stroke:none;stroke-width:1px;stroke-linecap:butt;stroke-linejoin:miter;stroke-opacity:1;fill-opacity:1"
       d="M 44.5 48 L 42.5 50 L 33 50 L 33 63 L 46 63 L 46 53.5 L 48 51.5 L 44.5 48 z M 44.5 49.5 L 46.5 51.5 L 45.5 52.5 L 43.5 50.5 L 44.5 49.5 z M 34 51 L 41.5 51 L 36.5 56 L 35.5 60.5 L 40 59.5 L 45 54.5 L 45 62 L 34 62 L 34 51 z M 37.5 56.5 L 39.5 58.5 L 37 59 L 37.5 56.5 z "
       transform="translate(0,1036.3622)"
       id="path3983" />
    <g
       style="fill:#000000;fill-opacity:1"
       id="g3098"
       transform="matrix(1,0,0,-1,-35.5,2250.7244)" />
    <path
       style="fill:#f6f6f6;fill-opacity:1;stroke:none"
       d="m 56,1093.3622 7,-7 -2.5,0 -4.5,4.5 -4.5,-4.5 -2.5,0 z"
       id="path3929"
       inkscape:connector-curvature="0"
       sodipodi:nodetypes="ccccccc" />
    <path
       sodipodi:nodetypes="ccccccc"
       inkscape:connector-curvature="0"
       id="path3931"
       d="m 56,1090.8622 7,7 -2.5,0 -4.5,-4.5 -4.5,4.5 -2.5,0 z"
       style="fill:#f6f6f6;fill-opacity:1;stroke:none" />
    <path
       sodipodi:nodetypes="ssssszzzzz"
       id="path3870"
       d="m 39,1101.3622 c -2.761424,0 -5,2.2386 -5,5 0,2.7614 2.238576,5 5,5 2.761424,0 5,-2.2386 5,-5 0,-2.7614 -2.238576,-5 -5,-5 z m 0,2 c 1.5,0 3,1 3,3 0,2 -1.5,3 -3,3 -1.5,0 -3,-1 -3,-3 0,-2 1.5,-3 3,-3 z"
       style="fill:#f6f6f6;fill-opacity:1;stroke:none"
       inkscape:connector-curvature="0" />
    <path
       sodipodi:type="star"
       style="fill:#f6f6f6;fill-opacity:1;stroke:none"
       id="path3091"
       sodipodi:sides="5"
       sodipodi:cx="60.5"
       sodipodi:cy="1.5000153"
       sodipodi:r1="3.6400549"
       sodipodi:r2="1.5845937"
       sodipodi:arg1="1.2924967"
       sodipodi:arg2="1.9208152"
       inkscape:flatsided="false"
       inkscape:rounded="0.1"
       inkscape:randomized="0"
       d="M 61.5,5.0000153 C 61.256218,5.0696673 60.194782,3.0754708 59.956618,2.988529 59.718454,2.9015872 57.621895,3.7429579 57.480319,3.5326312 57.338743,3.3223044 58.907335,1.6965786 58.916425,1.4432045 c 0.0091,-0.253374 -1.438974,-1.98732248 -1.28269,-2.18696356 0.156283,-0.19964108 2.187162,0.78980155 2.430944,0.72014957 0.243782,-0.06965198 1.445388,-1.98266171 1.683552,-1.89571991 0.238165,0.086942 -0.07527,2.32417674 0.0663,2.53450351 0.141575,0.21032678 2.332273,0.76197019 2.323183,1.01534419 -0.0091,0.2533741 -2.233685,0.6466187 -2.389968,0.8462598 -0.156284,0.1996411 -0.004,2.4535852 -0.247747,2.5232372 z"
       transform="matrix(0.79323653,0.05288694,-0.05288694,0.79323653,13.101661,1108.5739)" />
    <path
       sodipodi:type="star"
       style="fill:#f6f6f6;fill-opacity:1;stroke:none"
       id="path3095"
       sodipodi:sides="5"
       sodipodi:cx="60.5"
       sodipodi:cy="1.5000153"
       sodipodi:r1="3.6400549"
       sodipodi:r2="1.5845937"
       sodipodi:arg1="1.2924967"
       sodipodi:arg2="1.9208152"
       inkscape:flatsided="false"
       inkscape:rounded="0.1"
       inkscape:randomized="0"
       d="M 61.5,5.0000153 C 61.256218,5.0696673 60.194782,3.0754708 59.956618,2.988529 59.718454,2.9015872 57.621895,3.7429579 57.480319,3.5326312 57.338743,3.3223044 58.907335,1.6965786 58.916425,1.4432045 c 0.0091,-0.253374 -1.438974,-1.98732248 -1.28269,-2.18696356 0.156283,-0.19964108 2.187162,0.78980155 2.430944,0.72014957 0.243782,-0.06965198 1.445388,-1.98266171 1.683552,-1.89571991 0.238165,0.086942 -0.07527,2.32417674 0.0663,2.53450351 0.141575,0.21032678 2.332273,0.76197019 2.323183,1.01534419 -0.0091,0.2533741 -2.233685,0.6466187 -2.389968,0.8462598 -0.156284,0.1996411 -0.004,2.4535852 -0.247747,2.5232372 z"
       transform="matrix(0.29752649,-0.47751384,0.47751384,0.29752649,31.640441,1131.051)" />
    <path
       transform="matrix(0.64574451,-0.46371893,0.46371893,0.64574451,19.224512,1131.2306)"
       d="M 61.5,5.0000153 C 61.256218,5.0696673 60.194782,3.0754708 59.956618,2.988529 59.718454,2.9015872 57.621895,3.7429579 57.480319,3.5326312 57.338743,3.3223044 58.907335,1.6965786 58.916425,1.4432045 c 0.0091,-0.253374 -1.438974,-1.98732248 -1.28269,-2.18696356 0.156283,-0.19964108 2.187162,0.78980155 2.430944,0.72014957 0.243782,-0.06965198 1.445388,-1.98266171 1.683552,-1.89571991 0.238165,0.086942 -0.07527,2.32417674 0.0663,2.53450351 0.141575,0.21032678 2.332273,0.76197019 2.323183,1.01534419 -0.0091,0.2533741 -2.233685,0.6466187 -2.389968,0.8462598 -0.156284,0.1996411 -0.004,2.4535852 -0.247747,2.5232372 z"
       inkscape:randomized="0"
       inkscape:rounded="0.1"
       inkscape:flatsided="false"
       sodipodi:arg2="1.9208152"
       sodipodi:arg1="1.2924967"
       sodipodi:r2="1.5845937"
       sodipodi:r1="3.6400549"
       sodipodi:cy="1.5000153"
       sodipodi:cx="60.5"
       sodipodi:sides="5"
       id="path3950"
       style="fill:#f6f6f6;fill-opacity:1;stroke:none"
       sodipodi:type="star" />
    <path
       sodipodi:type="star"
       style="fill:#f6f6f6;fill-opacity:1;stroke:none"
       id="path3952"
       sodipodi:sides="5"
       sodipodi:cx="60.5"
       sodipodi:cy="1.5000153"
       sodipodi:r1="3.6400549"
       sodipodi:r2="1.5845937"
       sodipodi:arg1="1.2924967"
       sodipodi:arg2="1.9208152"
       inkscape:flatsided="false"
       inkscape:rounded="0.1"
       inkscape:randomized="0"
       d="M 61.5,5.0000153 C 61.256218,5.0696673 60.194782,3.0754708 59.956618,2.988529 59.718454,2.9015872 57.621895,3.7429579 57.480319,3.5326312 57.338743,3.3223044 58.907335,1.6965786 58.916425,1.4432045 c 0.0091,-0.253374 -1.438974,-1.98732248 -1.28269,-2.18696356 0.156283,-0.19964108 2.187162,0.78980155 2.430944,0.72014957 0.243782,-0.06965198 1.445388,-1.98266171 1.683552,-1.89571991 0.238165,0.086942 -0.07527,2.32417674 0.0663,2.53450351 0.141575,0.21032678 2.332273,0.76197019 2.323183,1.01534419 -0.0091,0.2533741 -2.233685,0.6466187 -2.389968,0.8462598 -0.156284,0.1996411 -0.004,2.4535852 -0.247747,2.5232372 z"
       transform="matrix(0.77144926,-0.19206057,0.19206057,0.77144926,7.2717848,1118.0644)" />
    <path
       transform="matrix(0.55512276,0.39550548,-0.40957218,0.53605715,19.907818,1087.8583)"
       d="M 61.5,5.0000153 C 61.256218,5.0696673 60.194782,3.0754708 59.956618,2.988529 59.718454,2.9015872 57.621895,3.7429579 57.480319,3.5326312 57.338743,3.3223044 58.907335,1.6965786 58.916425,1.4432045 c 0.0091,-0.253374 -1.438974,-1.98732248 -1.28269,-2.18696356 0.156283,-0.19964108 2.187162,0.78980155 2.430944,0.72014957 0.243782,-0.06965198 1.445388,-1.98266171 1.683552,-1.89571991 0.238165,0.086942 -0.07527,2.32417674 0.0663,2.53450351 0.141575,0.21032678 2.332273,0.76197019 2.323183,1.01534419 -0.0091,0.2533741 -2.233685,0.6466187 -2.389968,0.8462598 -0.156284,0.1996411 -0.004,2.4535852 -0.247747,2.5232372 z"
       inkscape:randomized="0"
       inkscape:rounded="0.1"
       inkscape:flatsided="false"
       sodipodi:arg2="1.9208152"
       sodipodi:arg1="1.2924967"
       sodipodi:r2="1.5845937"
       sodipodi:r1="3.6400549"
       sodipodi:cy="1.5000153"
       sodipodi:cx="60.5"
       sodipodi:sides="5"
       id="path3954"
       style="fill:#f6f6f6;fill-opacity:1;stroke:none"
       sodipodi:type="star" />
    <g
       transform="translate(16,-95.999985)"
       id="g3295"
       style="fill:#f6f6f6;fill-opacity:1">
      <g
         id="g3297"
         style="fill:#f6f6f6;fill-opacity:1">
        <path
           id="path3299"
           d="m 17,1158.3622 0,4 6,0 -2,-2 -3,0 0,-2 z m 8,4 6,0 0,-4 -1,0 0,2 -3,0 z"
           style="fill:#f6f6f6;fill-opacity:1;stroke:none"
           inkscape:connector-curvature="0"
           sodipodi:nodetypes="cccccccccccccc" />
      </g>
      <g
         style="fill:#f6f6f6;fill-opacity:1"
         id="g3301"
         transform="matrix(1,0,0,-1,-3,2315.7244)">
        <path
           style="fill:#f6f6f6;fill-opacity:1;stroke:none"
           d="m 27,1154.3622 -5,5 3,0 0,5 4,0 0,-5 3,0 z"
           id="path3303"
           inkscape:connector-curvature="0"
           sodipodi:nodetypes="cccccccc" />
      </g>
    </g>
    <path
       style="fill:#76e300;fill-opacity:1;stroke:none"
       d="m 22,3.5 c -2,0 -3,1.0000153 -3,1.0000153 l 0,1.3125 c -1.129217,0.2954 -2,0.6875 -2,0.6875 l 0,6.4999997 c 0,0 1,-0.500015 3,-0.500015 2,0 4.5,1 6.5,1 2,0 2.5,-0.499985 2.5,-0.499985 l 0,-1.59375 c 1.187061,-0.145 2,-0.40625 2,-0.40625 l 0,-6.9999997 c 0,0 -1.5,0.5 -3.5,0.5 C 25.5,4.5000153 24,3.5 22,3.5 z m 0,1 c 1.012484,0 2.204763,0.276634 3.375,0.53125 C 25.255744,5.0165 25.126454,5 25,5 24.194585,5 23.48847,5.37725 23.03125,5.96875 21.978779,5.73565 20.935957,5.5 20,5.5 c -0.0312,0 -0.06256,-5e-4 -0.09375,0 C 20.093422,5.3328 20.205697,5.09135 20.25,4.78125 20.709979,4.61625 21.282918,4.5 22,4.5 z m 3.71875,0.59375 c 1.020877,0.2191 1.020208,0.4062653 1.78125,0.4062653 0.514286,0 0.93025,-0.03875 1.28125,-0.09375 0.141623,0.5365 0.540614,0.8125 1.21875,0.8125 l 0,3 c -0.468563,0 -0.788219,0.14865 -1,0.40625 l 0,-3.625 c 0,0 -0.141917,0.3641347 -1.71875,0.4687347 -0.295142,-0.6483 -0.870869,-1.1645 -1.5625,-1.375 z M 24.5,5.5 l 1,0 0,0.5 0.5,0 0,0.46875 c -0.640173,-0.045 -1.309206,-0.1658 -2,-0.3125 L 24,6 24.5,6 z m -4.5,1 c 2,0 4.785715,1 6.5,1 0.514286,0 -0.06975,-0.038735 0.28125,-0.093735 0.141623,0.5365 0.540614,0.8125 1.21875,0.8125 l 0,2.9999997 c -0.821864,0 -1.247423,0.3994 -1.28125,1.1875 C 26.380765,12.463265 26.981089,12.5 26.5,12.5 25.619304,12.5 24.385292,12.225426 23.15625,11.96875 24.46145,11.885257 25.5,10.826269 25.5,9.5 25.5,8.1193 24.380712,7 23,7 c -1.380712,0 -2.5,1.1193 -2.5,2.5 0,0.982421 0.581927,1.810068 1.40625,2.21875 C 21.201197,11.587744 20.52726,11.5 20,11.5 c -0.67875,0 -0.258824,0.09301 -0.75,0.187515 -0.118757,-0.596 -0.535279,-0.90625 -1.25,-0.90625 l 0,-2.9999997 c 0.75,0 1.15625,-0.3438 1.25,-1 C 19.709979,6.6162653 19.282918,6.5 20,6.5 z m 2.5,1 1,0 0,0.5 0.5,0 0,1 -0.5,0 0,1 0.5,0 0,1 -0.5,0 0,0.5 -1,0 0,-0.5 -0.5,0 0,-1 0.5,0 0,-1 -0.5,0 0,-1 0.5,0 z"
       id="path4255"
       transform="translate(0,1036.3622)"
       inkscape:connector-curvature="0"
       sodipodi:nodetypes="sccccssccccssscscsccscsccccccccccccccccssccccscssscsccccsccccccccccccccccccccc" />
    <g
       transform="translate(4.5,-25.781255)"
       id="g4281"
       style="fill:#ff0000;stroke:none" />
    <path
       style="fill:#e0caff;fill-opacity:1;stroke:none"
       d="m 24,18 c -1.380712,0 -2.5,1.1194 -2.5,2.5 0,1.3808 1.119288,2.5 2.5,2.5 1.380713,0 2.5,-1.1192 2.5,-2.5 C 26.5,19.1194 25.380713,18 24,18 z m 0,5 -4,0 -2,7 12,0 -2,-7 z m 0,-4 c 0.833333,0 1.5,0.6667 1.5,1.5 0,0.8333 -0.666667,1.5 -1.5,1.5 -0.833333,0 -1.5,-0.6667 -1.5,-1.5 0,-0.8333 0.666667,-1.5 1.5,-1.5 z"
       transform="translate(0,1036.3622)"
       id="path4298"
       inkscape:connector-curvature="0"
       sodipodi:nodetypes="sssssccccccsssss" />
    <path
       style="fill:#fac900;fill-opacity:1;stroke:#ffffff;stroke-width:0;stroke-linecap:butt;stroke-linejoin:miter;stroke-miterlimit:4;stroke-opacity:1;stroke-dasharray:none;stroke-dashoffset:0"
       d="m 24,34.000015 c -3.865993,0 -6,2.134 -6,6 0,3.866 2.134007,6 6,6 3.865993,0 6,-2.134 6,-6 0,-3.866 -2.134007,-6 -6,-6 z m 0,1 c 3,0 5,2 5,5 0,3 -2,5 -5,5 -3,0 -5,-2 -5,-5 0,-3 2,-5 5,-5 z M 27.53125,36.75 24,40.28125 21.875,38.15625 21.15625,38.875 23.28125,41 24,41.71875 24.71875,41 28.25,37.46875 z"
       transform="translate(0,1036.3622)"
       id="path4348"
       inkscape:connector-curvature="0"
       sodipodi:nodetypes="zssszzssszccccccccc" />
    <g
       style="fill:#f6f6f6;fill-opacity:1"
       id="g4364"
       transform="translate(16,16.000033)">
      <path
         style="fill:#f6f6f6;fill-opacity:1;stroke:none"
         d="m 17,97 0,4 0,10 14,0 0,-10 0,-4 -14,0 z m 1,4 12,0 0,9 -12,0 0,-9 z"
         transform="translate(0,1036.3622)"
         id="path4366"
         inkscape:connector-curvature="0" />
      <path
         style="fill:#f6f6f6;fill-opacity:1;stroke:none"
         d="m 21,1138.3622 0,1 3,0 0,2 -2,0 0,1 2,0 0,2 -3,0 0,1 4,0 0,-7 z"
         id="path4368"
         inkscape:connector-curvature="0"
         sodipodi:nodetypes="ccccccccccccc" />
      <rect
         style="fill:#f6f6f6;fill-opacity:1;stroke:none"
         id="rect4370"
         width="1"
         height="7"
         x="26"
         y="1138.3622" />
    </g>
    <path
       style="fill:#69dfff;fill-opacity:1;stroke:none"
       d="m 21.5,1086.3622 0,1 c 0.375,0 0.476562,0.01 0.5,0.2188 0.0078,0.07 0,0.1562 0,0.2812 l 0,2.5 c 0,0 -5.5,7 -5,7.5 0.5,0.5 7,0.5 7,0.5 0,0 6.5,0 7,-0.5 0.5,-0.5 -5,-7.5 -5,-7.5 l 0,-2.5 0,-0.2812 c 0.02344,-0.211 0.125,-0.2188 0.5,-0.2188 l 0,-1 c -1.28551,0 -1.442465,0.056 -1.46875,1 l -0.03125,0 0,0.5 0,3 c 0,0 4.436508,5.58 4,6 -0.436508,0.42 -5,0.5 -5,0.5 0,0 -4.563492,-0.08 -5,-0.5 -0.436508,-0.42 4,-6 4,-6 l 0,-3 0,-0.5 -0.03125,0 c -0.02629,-0.9441 -0.18324,-1 -1.46875,-1 z m 1,6.5 c 0,0 -3,3 -2.5,3.5 0.5,0.5 7.5,0.5 8,0 0.5,-0.5 -2.5,-3.5 -2.5,-3.5 0,0 -0.5,0.5 -1.5,0.5 -1,0 -1.5,-0.5 -1.5,-0.5 z m 0.5,1 c 0.276142,0 0.5,0.2239 0.5,0.5 0,0.2762 -0.223858,0.5 -0.5,0.5 -0.276142,0 -0.5,-0.2238 -0.5,-0.5 0,-0.2761 0.223858,-0.5 0.5,-0.5 z m 2,0 c 0.276142,0 0.5,0.2239 0.5,0.5 0,0.2762 -0.223858,0.5 -0.5,0.5 -0.276142,0 -0.5,-0.2238 -0.5,-0.5 0,-0.2761 0.223858,-0.5 0.5,-0.5 z m -1,1 c 0.276142,0 0.5,0.2239 0.5,0.5 0,0.2762 -0.223858,0.5 -0.5,0.5 -0.276142,0 -0.5,-0.2238 -0.5,-0.5 0,-0.2761 0.223858,-0.5 0.5,-0.5 z m -1.5,0.5 c 0.276142,0 0.5,0.2239 0.5,0.5 0,0.2762 -0.223858,0.5 -0.5,0.5 -0.276142,0 -0.5,-0.2238 -0.5,-0.5 0,-0.2761 0.223858,-0.5 0.5,-0.5 z"
       id="path4392"
       inkscape:connector-curvature="0"
       sodipodi:nodetypes="ccsscscscccccccccscsccccccsscscssssssssssssssssssss" />
    <path
       style="fill:#f6f6f6;fill-opacity:1;stroke:none"
       d="M 19 66 C 18.446 66 18 66.446 18 67 L 18 77 C 18 77.554 18.446 78 19 78 L 29 78 C 29.554 78 30 77.554 30 77 L 30 67 C 30 66.446 29.554 66 29 66 L 19 66 z M 19.84375 67 L 28.15625 67 C 28.617917 67 29 67.38215 29 67.84375 L 29 76.15625 C 29 76.61785 28.617917 77 28.15625 77 L 19.84375 77 C 19.382083 77 19 76.61785 19 76.15625 L 19 67.84375 C 19 67.38215 19.382083 67 19.84375 67 z "
       transform="translate(0,1036.3622)"
       id="path4510" />
    <path
       style="fill:#f6f6f6;fill-opacity:1;stroke:none"
       d="m 27,1104.3622 c -0.552285,0 -1,0.4477 -1,1 0,0.5523 0.447715,1 1,1 0.552285,0 1,-0.4477 1,-1 0,-0.5523 -0.447715,-1 -1,-1 z"
       id="path4506" />
    <path
       style="fill:#f6f6f6;fill-opacity:1;stroke:none"
       d="m 24,1107.3622 c -0.552285,0 -1,0.4477 -1,1 0,0.5523 0.447715,1 1,1 0.552285,0 1,-0.4477 1,-1 0,-0.5523 -0.447715,-1 -1,-1 z"
       id="path4504" />
    <path
       style="fill:#f6f6f6;fill-opacity:1;stroke:none"
       d="m 21,1110.3622 c -0.552285,0 -1,0.4477 -1,1 0,0.5523 0.447715,1 1,1 0.552285,0 1,-0.4477 1,-1 0,-0.5523 -0.447715,-1 -1,-1 z"
       id="rect4430" />
    <path
       sodipodi:nodetypes="zzzzz"
       inkscape:connector-curvature="0"
       id="path4474"
       d="m 24,1118.3622 c -3.5,0 -6,2.5 -6,6 0,3.5 2.5,6 6,6 3.5,0 6,-2.5 6,-6 0,-3.5 -2.5,-6 -6,-6 z"
       style="fill:#ff4a4a;fill-opacity:1;stroke:none" />
    <path
       style="fill:#ffee00;fill-opacity:1;stroke:none"
       d="m 24,1134.3622 c -0.5,0 -6.5,10.5455 -6,11 0.5,0.4546 11.5,0.4546 12,0 0.5,-0.4545 -5.5,-11 -6,-11 z"
       id="path4484"
       inkscape:connector-curvature="0"
       sodipodi:nodetypes="zssz" />
    <path
       style="fill:#000000;fill-opacity:1;stroke:none"
       d="m 25,1141.3622 -2,0 c 0.03125,-3.7333 0,-2 0,-4 l 2,0 c 0,2 0.03125,-0.7333 0,4 z m -1,1.1334 c 0.552285,0 1,0.4178 1,0.9333 0,0.5155 -0.447715,0.9333 -1,0.9333 -0.552285,0 -1,-0.4178 -1,-0.9333 0,-0.5155 0.447715,-0.9333 1,-0.9333 z"
       id="path4482"
       inkscape:connector-curvature="0"
       sodipodi:nodetypes="cccccsssss" />
    <rect
       style="fill:#ffffff;fill-opacity:1;stroke:none"
       id="rect4490"
       width="6"
       height="2.0000455"
       x="21"
       y="1123.3622" />
    <path
       style="fill:#f6f6f6;fill-opacity:1"
       d="m 7.0008152,1162.3137 c -1.5009916,-0.263 -2.9446828,-1.1485 -3.8274509,-2.3474 -2.0888203,-2.8366 -1.3400265,-6.7991 1.6401266,-8.6795 2.3565461,-1.4866 5.4519241,-1.1357 7.4318671,0.8433 0.816688,0.8161 1.327956,1.7187 1.607065,2.8376 0.162479,0.6512 0.204894,1.7181 0.09379,2.3589 -0.423873,2.445 -2.147537,4.3016 -4.5513026,4.9022 -0.6029408,0.1505 -1.7808427,0.1923 -2.3940922,0.085 z m 1.5769365,-0.6707 c 0.9705408,-0.1111 1.8818223,-0.4765 2.6616273,-1.0676 0.161223,-0.1221 0.214678,-0.1937 0.215758,-0.289 0.0015,-0.1419 0.200525,-0.6977 0.308705,-0.8625 0.03873,-0.059 0.159594,-0.1457 0.268602,-0.1923 0.162325,-0.07 0.215759,-0.1257 0.295247,-0.3104 0.13433,-0.3121 0.172779,-0.4807 0.1096,-0.4807 -0.02834,0 -0.05149,-0.05 -0.05149,-0.1097 0,-0.1101 0.249583,-0.3747 0.611573,-0.6483 0.0936,-0.07 0.181796,-0.1589 0.195979,-0.1957 0.116676,-0.3038 0.138988,-1.7845 0.02687,-1.7845 -0.07199,0 -0.09807,0.2946 -0.05156,0.5828 0.05754,0.3564 0.01363,0.5958 -0.112607,0.6142 -0.176338,0.026 -0.297221,-0.1788 -0.395358,-0.669 -0.145521,-0.7267 -0.156353,-0.7407 -0.634976,-0.8242 -0.1428,-0.025 -0.151,-0.019 -0.151,0.1136 0,0.3098 -0.389878,0.7881 -0.69726,0.8556 -0.231632,0.051 -0.365128,-0.081 -0.580415,-0.5727 -0.102213,-0.2335 -0.222432,-0.4605 -0.26715,-0.5045 -0.07701,-0.076 -0.0813,-0.075 -0.0813,0.018 0,0.2395 0.313535,1.0589 0.436006,1.1397 0.02851,0.019 0.152183,0.034 0.274832,0.035 0.305007,9e-4 0.497447,0.1053 0.496128,0.2688 -0.0018,0.2241 -0.172166,0.5118 -0.479599,0.8099 -0.415153,0.4025 -0.494674,0.5486 -0.494888,0.9091 -1.85e-4,0.2829 0.0035,0.2922 0.104364,0.2606 0.0575,-0.018 0.145778,-0.061 0.196181,-0.095 0.136506,-0.094 0.291999,-0.079 0.327335,0.033 0.03403,0.1072 -0.222857,0.5511 -0.472571,0.8166 -0.122332,0.1301 -0.164505,0.149 -0.255535,0.1148 -0.09352,-0.035 -0.108597,-0.072 -0.10604,-0.2564 0.0019,-0.1326 -0.01602,-0.2093 -0.04646,-0.1993 -0.04814,0.015 -0.09114,0.077 -0.3689264,0.5213 -0.1636441,0.262 -0.527651,0.5112 -0.8452481,0.5788 -0.2600115,0.055 -0.4846326,0 -0.4846326,-0.1106 0,-0.037 -0.060247,-0.1804 -0.1338921,-0.3203 -0.2358201,-0.4478 -0.2562812,-0.5557 -0.1913352,-1.0081 0.066535,-0.4639 0.027776,-0.6572 -0.1683764,-0.8403 -0.1721743,-0.1606 -0.2601405,-0.3529 -0.228114,-0.4987 0.025548,-0.1162 0.011932,-0.1299 -0.186873,-0.1883 -0.2267556,-0.067 -0.7169506,-0.046 -1.0585629,0.047 -0.1529626,0.042 -0.2092406,0.033 -0.3946094,-0.059 -0.3988412,-0.1981 -0.6007682,-0.6701 -0.5422434,-1.2677 0.054646,-0.558 0.07578,-0.6278 0.2516465,-0.8306 0.095039,-0.1098 0.1997658,-0.2646 0.232727,-0.344 0.054396,-0.1312 0.2632156,-0.2709 0.514733,-0.3446 0.040862,-0.012 -0.0025,-0.045 -0.104894,-0.078 -0.3106595,-0.103 -0.3529789,-0.3448 -0.1037947,-0.5938 0.1371026,-0.137 0.1887834,-0.1599 0.3252271,-0.144 0.1504627,0.018 0.1622216,0.011 0.1622216,-0.1081 0,-0.069 0.020906,-0.1402 0.046464,-0.1558 0.025548,-0.016 0.046463,-0.044 0.046463,-0.06 0,-0.051 -0.3251898,-0.1391 -0.352492,-0.094 -0.036365,0.058 -0.2243037,0.049 -0.2886699,-0.015 -0.1212836,-0.1211 0.00781,-0.3611 0.1953682,-0.3631 0.06286,-7e-4 0.1235033,-0.053 0.1712207,-0.1509 0.040632,-0.082 0.1124303,-0.1571 0.1595418,-0.1663 0.1014836,-0.02 0.2079528,0.1092 0.2079528,0.2519 0,0.055 0.031357,0.1275 0.069689,0.1592 0.038332,0.033 0.069689,0.11 0.069689,0.1739 0,0.1059 0.013088,0.1136 0.1487646,0.087 0.2075956,-0.042 0.3526353,-0.1901 0.3444401,-0.353 -0.00364,-0.072 -0.022081,-0.1484 -0.040883,-0.1673 -0.088595,-0.088 -0.019322,-0.2556 0.195361,-0.4711 0.2978365,-0.299 0.4713984,-0.3768 0.9731639,-0.4361 0.3792255,-0.045 0.43047,-0.041 0.6329237,0.049 0.2060257,0.09 0.2184863,0.1064 0.1924386,0.2366 l -0.027848,0.139 0.2514431,-0.1341 c 0.1382944,-0.074 0.3572834,-0.1611 0.4866444,-0.1942 0.12936,-0.033 0.235202,-0.079 0.235202,-0.1009 0,-0.053 -0.584248,-0.3213 -0.9693241,-0.4469 -0.7281847,-0.2378 -1.8790302,-0.3132 -2.619767,-0.1715 -0.6402362,0.1223 -1.7650591,0.577 -1.8271205,0.7387 -0.012453,0.033 0.00938,0.1353 0.048514,0.229 0.088856,0.2124 0.091458,0.5098 0.00593,0.6743 -0.085566,0.1643 -0.7089602,0.7648 -0.8872174,0.8547 -0.076665,0.038 -0.3170953,0.128 -0.534301,0.1987 -0.5990597,0.1954 -0.6236862,0.2133 -0.7594979,0.552 -0.2285659,0.5705 -0.3154755,0.9917 -0.3409744,1.6526 l -0.024179,0.6268 0.3561511,0.2966 c 0.1958825,0.163 0.4835675,0.4387 0.6392992,0.6125 0.2113756,0.2358 0.3462358,0.3416 0.5320221,0.4168 0.2732234,0.1108 0.47993,0.3173 0.47993,0.4794 0,0.057 -0.03374,0.2031 -0.074978,0.3239 -0.069398,0.2036 -0.069179,0.2352 0.00292,0.4236 0.087106,0.2279 0.049566,0.3656 -0.113742,0.4174 -0.1138816,0.037 -0.1195794,0.1716 -0.013992,0.3326 0.043444,0.066 0.090479,0.2061 0.1045369,0.311 0.024173,0.1804 0.048639,0.206 0.453565,0.476 1.0303793,0.6867 2.2838919,0.9923 3.499698,0.853 z m 1.179677,-6.9419 c 0.095185,-0.094 0.092448,-0.1563 -0.00833,-0.1858 -0.044714,-0.014 -0.1584122,-0.062 -0.2526519,-0.1091 -0.1405707,-0.069 -0.1757733,-0.073 -0.1960002,-0.021 -0.043372,0.113 -0.2899609,0.076 -0.3963176,-0.057 -0.091157,-0.1158 -0.1016606,-0.1185 -0.1824975,-0.045 -0.083474,0.076 -0.2385934,0.061 -0.2385934,-0.022 0,-0.023 -0.1266379,-0.1047 -0.2814169,-0.1828 -0.2564654,-0.1292 -0.3069292,-0.1389 -0.5691477,-0.11 -0.2931757,0.033 -0.3554473,0.07 -0.3567101,0.2175 -6.226e-4,0.073 0.027984,0.079 0.2291208,0.053 0.3234729,-0.043 0.4324792,0 0.7298752,0.2658 l 0.2614492,0.2366 0.4531923,-0.033 c 0.3055613,-0.022 0.4632273,-0.016 0.4839965,0.017 0.045848,0.074 0.2405737,0.059 0.3239976,-0.023 z m -1.1105029,-2.0023 c 0.1310019,-0.061 0.1615282,-0.1 0.1415938,-0.1739 -0.013983,-0.053 -0.025703,-0.1207 -0.026047,-0.1526 -0.00114,-0.1079 -0.089605,-0.059 -0.2080329,0.1152 -0.1072104,0.1576 -0.1512779,0.2908 -0.096174,0.2908 0.011909,0 0.096809,-0.036 0.1886615,-0.079 z m 2.8778982,-0.2429 c 0.03286,-0.053 -0.14532,-0.1569 -0.205533,-0.1197 -0.02334,0.014 -0.132673,-0.021 -0.24296,-0.079 -0.272373,-0.143 -0.892959,-0.1323 -0.802528,0.014 0.0147,0.024 0.197984,0.044 0.407291,0.044 0.2833,10e-5 0.422121,0.023 0.543174,0.088 0.190303,0.1019 0.263013,0.115 0.300556,0.054 z"
       id="path4563"
       inkscape:connector-curvature="0"
       sodipodi:nodetypes="ccsccccccccccccssccsccccscccsccccccccccccccscccccccsccccccscscccccscscccsccccccsccccccccsccccsccccccccccccccsccccccccccccccscccccccccc" />
  </g>
</svg>
