<?xml version="1.0" encoding="UTF-8" standalone="no"?>
<!-- Created with Inkscape (http://www.inkscape.org/) -->

<svg
   xmlns:dc="http://purl.org/dc/elements/1.1/"
   xmlns:cc="http://creativecommons.org/ns#"
   xmlns:rdf="http://www.w3.org/1999/02/22-rdf-syntax-ns#"
   xmlns:svg="http://www.w3.org/2000/svg"
   xmlns="http://www.w3.org/2000/svg"
   xmlns:sodipodi="http://sodipodi.sourceforge.net/DTD/sodipodi-0.dtd"
   xmlns:inkscape="http://www.inkscape.org/namespaces/inkscape"
   version="1.0"
   width="1600"
   height="1600"
   id="svg3208"
   inkscape:version="0.48.2 r9819"
   sodipodi:docname="Jaxa_logo.svg">
  <metadata
     id="metadata5495">
    <rdf:RDF>
      <cc:Work
         rdf:about="">
        <dc:format>image/svg+xml</dc:format>
        <dc:type
           rdf:resource="http://purl.org/dc/dcmitype/StillImage" />
        <dc:title></dc:title>
      </cc:Work>
    </rdf:RDF>
  </metadata>
  <sodipodi:namedview
     pagecolor="#ffffff"
     bordercolor="#666666"
     borderopacity="1"
     objecttolerance="10"
     gridtolerance="10"
     guidetolerance="10"
     inkscape:pageopacity="0"
     inkscape:pageshadow="2"
     inkscape:window-width="625"
     inkscape:window-height="611"
     id="namedview5493"
     showgrid="true"
     inkscape:zoom="0.13264998"
     inkscape:cx="473.54223"
     inkscape:cy="707.42059"
     inkscape:window-x="0"
     inkscape:window-y="0"
     inkscape:window-maximized="0"
     inkscape:current-layer="svg3208">
    <inkscape:grid
       type="xygrid"
       id="grid5497"
       empspacing="5"
       visible="true"
       enabled="true"
       snapvisiblegridlinesonly="true" />
  </sodipodi:namedview>
  <defs
     id="defs3210" />
  <g
     transform="matrix(3.659998,0,0,3.659998,-1531.1462,389.8875)"
     id="layer1">
    <path
       d="m 629.21831,24.304984 -47.55235,68.562504 -21.7289,1.0625 -1.4375,4.3125 21.0625,0.34375 -22.5,29.281252 c 0,0 -13.5625,-7.5 -13.5625,-7.5 13.15861,-24.008662 23.9375,-66.062506 23.9375,-66.062506 l 4.625,-5.375 -28.90625,0.71875 c 0,0 -9.17317,44.033434 -20.71875,64.281256 -19.54107,-7.00737 -60.375,-7.46494 -60.375,-7.46494 0,0 43.52392,6.59149 56.78125,12.12119 -14.7744,26.36409 -42.125,22.5 -42.125,22.5 l 0.71875,2.84375 c 0,0 37.96662,10.91047 61.0625,-17.84375 0,0 14.28125,8.5625 14.28125,8.5625 l -9.625,15.375 12.125,-14.28125 c 0,0 12.15625,11.0625 12.15625,11.0625 -45.15972,36.53639 -67.5,76.0625 -67.5,76.0625 0,0 25.71403,-32.45434 76.78125,-67.5 9.63865,6.56148 32.125,42.5 32.125,42.5 l 8.59375,-68.21875 34.625,-17.125 -22.84375,29.28093 23.9375,0 22.5,-26.78093 5.34375,26.78093 47.84375,0 12.5,-19.65593 26.4375,0.375 0,19.28093 22.15625,0 c 0,0 -3.13839,-84.101206 -3.13839,-84.101206 0,-5.63581 4.96429,-8.77348 4.96429,-8.77348 0,0 -26.8259,0 -26.8259,0 l -57.95536,90.000006 -11.70089,-43.562502 38.5625,-11.4375 -30.6875,1.4375 c 0,0 16.57652,-23.253754 24.625,-32.500004 1.12106,-1.2879 4.694,-3.21875 4.694,-3.21875 l -27.53775,-0.71875 -20,27.875004 -3.59375,-23.937504 5.71875,-3.5625 -33.21875,0.34375 9.65625,38.593754 -41.78125,2.07265 7.5,-66.010154 z m -21.75,45.1875 -3.03125,21.843754 -14.125,0.375 17.15625,-22.218754 z m 160.3125,8.562504 0,27.125002 -16.4375,0 16.4375,-27.125002 z m -97.1875,16.1875 c -31.95519,8.949922 -42.59559,16.234312 -51.25,19.718752 0,0 1.87502,-18.062502 1.875,-18.062502 0,0 49.37501,-1.65623 49.375,-1.65625 z m -66.8125,2.5625 -3.3125,27.406252 -24.28125,15.71875 -15.71875,-10.625 25.3501,-32.288866 17.9624,-0.211136 z m -5.625,44.625002 -2.34375,20 -9.8125,-13.03125 12.15625,-6.96875 z"
       id="path3769"
       style="fill:#00599c;fill-opacity:1;fill-rule:evenodd;stroke:none"
       inkscape:connector-curvature="0" />
  </g>
</svg>
