<?xml version="1.0" encoding="UTF-8" standalone="no"?>
<!-- Created with Inkscape (http://www.inkscape.org/) -->

<svg
   xmlns:dc="http://purl.org/dc/elements/1.1/"
   xmlns:cc="http://creativecommons.org/ns#"
   xmlns:rdf="http://www.w3.org/1999/02/22-rdf-syntax-ns#"
   xmlns:svg="http://www.w3.org/2000/svg"
   xmlns="http://www.w3.org/2000/svg"
   xmlns:sodipodi="http://sodipodi.sourceforge.net/DTD/sodipodi-0.dtd"
   xmlns:inkscape="http://www.inkscape.org/namespaces/inkscape"
   width="1600"
   height="1600"
   id="svg8483"
   sodipodi:version="0.32"
   inkscape:version="0.48.2 r9819"
   version="1.0"
   sodipodi:docname="logo_cnsa.svg"
   inkscape:output_extension="org.inkscape.output.svg.inkscape"
   inkscape:export-filename="/Users/stuartlowe/Projects/strudel/PSL/logo_cnsa.png"
   inkscape:export-xdpi="3.5999999"
   inkscape:export-ydpi="3.5999999">
  <defs
     id="defs8485">
    <inkscape:perspective
       sodipodi:type="inkscape:persp3d"
       inkscape:vp_x="0 : 281.5625 : 1"
       inkscape:vp_y="0 : 1000 : 0"
       inkscape:vp_z="716.72412 : 281.5625 : 1"
       inkscape:persp3d-origin="358.36206 : 187.70833 : 1"
       id="perspective2830" />
  </defs>
  <sodipodi:namedview
     id="base"
     pagecolor="#ffffff"
     bordercolor="#666666"
     borderopacity="1.0"
     gridtolerance="10000"
     guidetolerance="10"
     objecttolerance="10"
     inkscape:pageopacity="0.0"
     inkscape:pageshadow="2"
     inkscape:zoom="0.125"
     inkscape:cx="1014.2582"
     inkscape:cy="852.99363"
     inkscape:document-units="px"
     inkscape:current-layer="layer1"
     inkscape:window-width="488"
     inkscape:window-height="510"
     inkscape:window-x="210"
     inkscape:window-y="57"
     showgrid="true"
     inkscape:window-maximized="0">
    <inkscape:grid
       type="xygrid"
       id="grid5600"
       empspacing="5"
       visible="true"
       enabled="true"
       snapvisiblegridlinesonly="true" />
  </sodipodi:namedview>
  <metadata
     id="metadata8488">
    <rdf:RDF>
      <cc:Work
         rdf:about="">
        <dc:format>image/svg+xml</dc:format>
        <dc:type
           rdf:resource="http://purl.org/dc/dcmitype/StillImage" />
        <dc:title></dc:title>
      </cc:Work>
    </rdf:RDF>
  </metadata>
  <g
     inkscape:label="Layer 1"
     inkscape:groupmode="layer"
     id="layer1"
     transform="translate(-300.09979,1008.7893)">
    <path
       style="fill:#0000ff;fill-opacity:1;stroke:none"
       d="m 1103.2027,-736.24082 0,1.45362 -115.67255,396.9985 c -225.94857,24.83022 -394.59443,121.48854 -394.59443,236.82383 0,134.13069 228.10039,242.97347 509.14868,242.97347 281.0483,9e-5 509.0929,-108.84278 509.0929,-242.97347 0,-114.72371 -166.8293,-210.97749 -390.9605,-236.43248 l -117.0141,-398.84347 z m -440.5504,299.32837 c -30.49203,11.87238 -64.57075,23.08617 -82.96664,55.18059 -12.92815,17.357 -13.24819,39.91925 -22.36299,58.81461 16.88409,-15.85822 35.92565,-27.96214 50.81986,-46.40323 16.61539,-23.15543 32.11264,-47.95749 54.50977,-67.59197 z m 869.9751,8.83334 25.1024,25.32608 c 20.5315,32.82961 49.7518,63.92356 81.9044,87.04775 l -3.634,-8.44201 c -6.4686,-26.59796 -16.5355,-52.29451 -38.6879,-72.12048 -18.859,-16.93869 -42.6412,-22.46449 -64.6849,-31.81134 z m -952.21495,32.59404 c -15.54081,3.97367 -29.36035,13.40586 -40.25334,26.94729 -25.1001,26.32201 -22.53887,66.80825 -19.00851,102.31062 0.73015,10.99159 -1.44958,21.32699 -0.72672,31.58767 7.37221,-15.09742 20.21346,-28.50926 33.60032,-40.25342 32.46282,-22.85704 66.38498,-54.8204 66.86534,-95.48983 -10.50309,29.26646 -42.13493,41.54611 -63.56678,61.33039 -11.01419,10.79797 -19.85781,23.38586 -24.87875,36.61941 l -0.78236,-0.61459 c 2.63887,-11.70624 7.90761,-22.29261 10.95795,-33.71218 9.5664,-30.88193 7.61753,-67.99583 37.79336,-88.7251 z m 1034.51065,7.32376 c 11.9867,8.01521 20.9367,20.49688 25.4378,33.20913 8.9907,29.33691 13.3352,60.32292 26.2206,87.83044 l -0.8387,0.72672 c -4.8339,-7.68241 -7.2622,-17.09816 -14.7597,-23.87239 -22.4069,-29.38415 -61.4583,-37.08239 -75.9221,-71.9528 3.659,20.82642 10.0821,40.49541 24.711,56.6342 25.2427,27.19723 61.8844,43.28304 79.1649,77.264 l 0.2234,-0.33553 c -6.4546,-32.0701 3.7829,-62.9427 -3.2427,-94.70713 -6.1218,-28.08787 -31.5812,-58.78568 -60.9949,-64.79681 z M 515.44804,-340.0809 c -0.48276,0.12412 -0.82772,0.49817 -1.28583,0.72671 -21.04196,26.80581 -35.96219,56.15889 -35.05392,92.13545 -2.83377,44.2806 25.65306,75.48668 28.84823,117.2378 6.58514,-43.56748 42.54373,-74.76689 62.0571,-112.82116 6.8279,-15.21991 12.04178,-31.79088 14.08866,-48.24818 -2.7504,7.0109 -7.50488,13.09017 -12.85863,19.06458 -25.0716,22.84163 -53.75001,46.28022 -59.20596,79.33254 -0.91529,4.69765 -1.20247,9.5777 -2.57167,14.14456 -1.07459,0.47335 -1.05549,-0.76523 -1.5095,-1.06226 l 3.01892,-40.98013 c 1.05557,-40.02155 -18.13099,-84.33201 5.03173,-119.52999 -0.19688,-0.0428 -0.39803,-0.0428 -0.55896,0 z m 1164.83086,6.26159 c 10.5547,14.70564 12.4127,33.10771 12.6909,52.10577 -4.8197,35.07318 -6.343,72.27508 -1.3418,107.78943 0,0.61544 -0.6232,1.06217 -1.2299,1.06226 -2.8876,-9.37527 -2.5574,-20.24077 -7.2121,-28.96003 -11.3616,-34.4764 -53.081,-50.67579 -69.996,-81.96027 2.3734,13.62164 6.6645,26.58701 11.6847,39.13518 15.8297,38.37252 54.3247,67.42515 64.9643,108.12496 1.215,3.74863 1.4902,8.26456 2.8513,11.62869 2.8523,-19.50292 8.0014,-38.34298 15.2627,-55.96329 19.4817,-41.57974 13.6097,-99.3262 -13.1382,-135.57548 -4.7063,-5.88247 -7.7675,-13.44386 -14.5359,-17.38722 z M 981.65982,-317.49426 871.96955,59.04204 1103.2027,-136.85747 1337.3428,62.00515 1226.143,-317.04701 c 139.0406,31.90583 238.501,116.19443 238.501,215.13168 0,126.30207 -162.0346,228.77309 -361.6649,228.77309 -199.63047,0 -361.60928,-102.47102 -361.60928,-228.77309 0,-99.37627 100.29524,-183.99982 240.29,-215.57893 z M 802.81209,-283.4467 C 567.9836,-152.85622 654.4973,0.21391 801.86179,79.61604 572.96526,-0.854 506.44538,-171.83418 802.81209,-283.4467 z m 600.72511,0 c 296.3668,111.61243 229.8469,282.5927 0.9504,363.06274 147.3645,-79.40213 233.8781,-232.47226 -0.9504,-363.06274 z m -554.37778,2.79534 C 745.70805,-207.80141 723.59929,-144.22958 732.98372,-74.297135 741.61121,-10.00577 797.3855,43.56405 862.3535,83.36176 758.63507,44.94225 688.19666,-17.05425 677.24409,-83.969073 666.29145,-150.88389 714.86739,-222.71737 849.15942,-280.65136 z m 505.45878,0 c 134.2919,57.93399 182.8678,129.76747 171.9153,196.682287 -10.9527,66.914903 -81.4469,128.911323 -185.1653,167.330833 64.9679,-39.79771 120.7982,-93.36753 129.4256,-157.658895 9.3845,-69.932445 -12.7243,-133.504275 -116.1756,-206.354225 z m -883.56065,51.37897 c -4.89734,10.32488 -6.85469,22.01288 -9.44836,33.26487 -5.47505,29.07753 -0.1575,59.97058 7.88297,86.65647 9.77097,33.473197 42.64653,57.358772 59.26185,87.99829 l 2.29219,1.84487 c -2.42016,-16.63423 -3.64967,-34.552407 1.06227,-50.428422 7.16061,-25.406801 15.34265,-50.185318 20.85339,-76.369598 2.87896,-20.57837 7.94305,-43.52298 5.53486,-63.34295 -2.74116,10.67908 -5.95035,21.06696 -11.46091,30.35765 -22.66343,34.2886 -45.19914,75.00998 -29.57512,118.803266 -0.36122,0.463075 -0.86882,1.042917 -1.45352,0.726711 -6.27871,-14.468537 -7.3497,-30.98361 -11.74057,-46.403217 -10.49367,-41.22563 -42.48793,-75.54668 -33.20905,-123.10802 z m 1256.85445,5.31112 c 6.8014,37.03841 -9.8346,68.00087 -23.2016,98.67669 -9.4059,21.31707 -12.5683,45.358759 -18.6172,68.206987 l -1.789,2.068541 -0.6703,-0.782363 c 2.1139,-9.927274 5.6305,-19.516613 4.6963,-30.805058 2.5738,-46.578697 -38.2946,-75.097457 -47.5214,-116.622857 l -0.4476,15.54227 c 3.4749,40.66206 14.2398,78.34278 26.5002,115.39291 7.0749,17.205162 4.9334,39.47757 3.2984,57.64048 14.6549,-22.94016 33.839,-43.901822 49.7018,-66.473825 22.2229,-40.772915 28.3816,-99.176065 8.0506,-142.843515 z M 553.29731,-110.86055 c 4.12243,27.082873 -6.73434,51.011759 -9.16881,76.76086 -2.11356,21.15615 1.1042,41.98112 9.89561,59.48553 1.84017,5.50114 6.92155,10.05986 8.16253,15.43039 -7.94511,-7.14872 -13.17458,-16.61883 -19.12031,-25.15833 -25.1287,-41.7345 -79.30789,-68.335467 -82.96656,-118.74719 -1.83546,22.423061 -0.87909,46.557125 7.60341,66.08247 20.12658,56.62855 81.9899,86.00388 127.35706,116.90234 -4.27934,-10.78368 -10.8555,-20.86383 -14.08866,-32.1468 -12.34557,-51.58869 -5.59334,-111.000331 -27.67427,-158.60927 z m 1094.33169,5.03165 -6.8208,18.225897 c -18.236,54.134933 -3.779,121.718523 -33.3767,170.908953 l 0,1.78898 c 19.3236,-14.96398 39.7677,-27.14759 59.8769,-40.30932 48.7868,-33.27076 81.7255,-84.80185 72.7914,-143.570148 -3.4538,35.20295 -30.1597,61.232808 -56.4665,86.600578 -16.9479,18.14168 -28.3233,38.37166 -42.8251,57.4169 l -1.789,0 c 10.734,-16.32291 17.3651,-34.45919 18.3935,-54.90112 1.0287,-33.83939 -13.5889,-62.436895 -9.7837,-96.16072 z M 580.97158,-24.53945 c 18.62658,37.17707 9.91426,85.57821 34.77436,120.14491 6.82781,11.42805 18.08997,21.54022 27.84194,30.35774 l -0.44767,0.44767 C 634.31542,122.3005 626.13399,116.3427 618.31736,109.41508 575.84106,74.5701 512.45352,69.91816 487.15851,12.69523 c 6.8635,42.01269 39.63567,80.21582 76.31362,102.75786 33.59201,23.43473 78.17236,19.93921 116.23159,32.48216 C 644.53544,119.59358 638.71502,77.24783 623.51669,39.75448 613.2988,16.78676 597.89555,-4.29338 580.97114,-24.53902 z m 1039.15092,5.08754 c -10.6067,11.61628 -18.1276,24.43365 -27.2269,36.6753 -28.5644,43.2358 -26.1202,100.09614 -68.9339,136.80533 25.2783,-8.62021 53.0808,-10.86439 79.1091,-17.83447 50.2943,-15.9925 103.6691,-66.35586 110.3051,-120.0332 -6.176,15.86522 -19.0483,30.56881 -33.097,41.76284 -35.0709,26.28545 -77.3805,35.35068 -109.8022,67.70385 -3.4915,2.29554 -6.9873,5.66584 -10.9579,5.81443 12.1519,-10.55239 23.1213,-23.51964 30.8051,-36.95486 19.9604,-33.82279 12.4236,-79.08551 29.7986,-113.93922 z M 993.34457,2.6315 c -11.00408,9e-5 -19.91532,2.69058 -26.66781,8.05074 -6.75257,5.36017 -10.11927,12.89835 -10.11927,22.58647 0,9.15879 3.34658,16.35544 10.06329,21.63626 6.7168,5.28082 15.28496,7.93877 25.71744,7.93877 8.43168,0 15.42518,-1.55649 20.90938,-4.6402 5.4841,-3.08381 9.3825,-7.79173 11.7406,-14.14464 l -15.3745,-3.63403 c -1.322,4.26179 -3.5044,7.40722 -6.5413,9.39247 -3.0368,1.98525 -6.63015,2.96319 -10.84597,2.96319 -5.71642,0 -10.40423,-1.51695 -13.97687,-4.64037 -3.57273,-3.12353 -5.36719,-8.40708 -5.36701,-15.76594 -9e-5,-6.93514 1.85239,-11.94197 5.47871,-15.03904 3.6264,-3.09698 8.32105,-4.64021 14.14464,-4.64038 4.21582,1.7e-4 7.7867,0.88071 10.7343,2.62765 2.9475,1.74704 4.8853,4.13861 5.8143,7.15608 l 15.7101,-2.79525 c -1.7864,-4.65879 -4.4221,-8.24607 -7.9948,-10.73421 -6.0023,-4.2088 -13.8145,-6.31757 -23.42523,-6.31757 z m 154.91933,0 c -6.0205,9e-5 -11.1733,0.66253 -15.4304,2.01265 -4.2571,1.35003 -7.5216,3.28949 -9.7837,5.87024 -2.2622,2.58092 -3.4104,5.36564 -3.4104,8.33021 0,4.60589 2.4027,8.53778 7.212,11.74065 3.42,2.27637 9.4117,4.19664 17.8905,5.75844 6.5904,1.21762 10.7824,2.03935 12.635,2.51579 2.7075,0.71473 4.616,1.54964 5.7026,2.51578 1.0865,0.96613 1.6212,2.14582 1.6213,3.52214 -10e-5,2.1442 -1.2748,4.04531 -3.8577,5.64675 -2.5828,1.60152 -6.4225,2.34818 -11.5169,2.34818 -4.8093,0 -8.6288,-0.88362 -11.461,-2.68364 -2.8321,-1.79994 -4.7204,-4.60383 -5.6466,-8.442 l -15.3745,1.11815 c 1.0331,6.51171 4.1961,11.47 9.5043,14.87137 5.3079,3.40136 12.9064,5.08753 22.8101,5.08753 6.8043,0 12.4919,-0.70873 17.0518,-2.12443 4.5599,-1.4162 8.0727,-3.57358 10.5665,-6.48525 2.4937,-2.91175 3.7457,-6.05727 3.7457,-9.39247 0,-3.67938 -1.0467,-6.77919 -3.1308,-9.28059 -2.0841,-2.50141 -4.9784,-4.42768 -8.6655,-5.87024 -3.6872,-1.44265 -9.3571,-2.84302 -17.0518,-4.19314 -7.695,-1.34986 -12.541,-2.66943 -14.5359,-3.91358 -1.5676,-0.97932 -2.3482,-2.14557 -2.3482,-3.52214 0,-1.50874 0.8414,-2.73389 2.5158,-3.63393 2.6006,-1.40285 6.1946,-2.06845 10.7902,-2.06854 4.453,0 7.7808,0.64711 10.0074,1.95675 2.2266,1.31031 3.6839,3.43826 4.3608,6.42935 l 15.8218,-0.50331 c -0.2491,-5.34689 -2.8574,-9.59987 -7.8271,-12.80282 -4.9697,-3.20278 -12.3628,-4.8079 -22.1953,-4.80798 z m -110.3052,2.01265 0,58.19959 15.5982,0 0,-37.96113 33.5444,37.96113 16.8282,0 0,-58.19959 -15.5982,0 0,38.85571 -34.0476,-38.85571 -16.325,0 z m 180.0219,0 -29.2957,58.19959 16.1014,0 6.2057,-13.25006 30.0224,0 6.5971,13.25006 16.5485,0 -30.1341,-58.19959 -16.0453,0 z m 7.8269,13.52963 10.3989,21.63616 -20.5181,0 10.1192,-21.63616 z M 641.79883,66.08641 c 22.98911,30.91514 29.21355,76.75471 71.56144,91.63231 7.02983,3.70378 15.97857,3.249 22.41888,7.32385 -8.0878,1.2409 -15.12301,-1.75414 -22.75433,-2.79542 -54.02546,-12.07217 -120.28794,3.30155 -160.84567,-42.8251 15.39351,30.14134 46.94942,54.32505 77.54365,63.95812 47.05985,15.96632 96.34315,-1.89074 140.71891,-12.80282 6.37134,-1.66888 14.19044,-1.07449 20.12659,-3.24258 -24.70072,-5.02103 -48.1726,-12.90648 -67.64787,-29.96647 -27.09477,-25.48871 -51.75183,-51.77802 -81.1216,-71.28189 z m 919.22947,5.14353 c -30.3715,20.71549 -54.7225,47.73245 -82.0719,74.02133 -18.5688,16.76399 -41.188,23.72209 -64.5173,29.01591 l 0,0.27905 9.3925,1.22994 c 48.7892,7.88425 100.0305,31.47067 150.95,12.24371 29.6306,-10.41793 62.2014,-35.1813 75.1955,-64.79664 -35.0001,42.50094 -92.1139,34.43368 -142.0049,42.26597 -13.4188,1.35886 -25.8079,6.16282 -39.3588,5.87024 9.5026,-4.56257 21.0944,-5.54754 30.3019,-11.57279 37.206,-18.56632 39.5905,-59.67922 62.113,-88.55733 z m -716.2856,94.87489 c -41.58069,0.33383 -78.99221,19.50609 -115.22523,35.22161 -33.23302,13.07545 -76.77799,10.96266 -106.00044,-9.16889 14.45912,18.12977 33.81311,29.32465 53.78296,36.89887 37.13187,14.80143 81.31343,4.68104 112.03845,-16.77212 26.36729,-14.80143 49.01368,-43.87598 83.74926,-32.87359 l 19.39996,5.70263 c 35.19438,17.19301 66.65922,46.68159 95.04249,77.26393 6.05513,-4.88777 12.42328,-10.21001 17.38735,-15.87764 -29.33985,-28.34278 -61.41098,-50.5195 -95.93728,-66.64169 l -0.11213,0 -17.49901,-6.42935 -0.16692,0 c -5.54702,-0.16606 -11.22801,-4.1476 -16.99587,-4.24894 -10.0799,-2.19848 -19.86765,-3.15195 -29.46316,-3.07482 z m 517.1994,8.16235 c -12.9257,0.0172 -25.7937,1.53492 -38.1847,4.75217 -3.2932,2.95542 -6.6908,3.1617 -10.0633,2.45998 -0.6652,0.27818 -13.4109,5.63587 -15.3188,6.2615 -0.026,-0.006 -0.034,0.006 -0.051,0 -35.0536,16.3045 -67.1321,39.12406 -96.1047,68.43074 l 18.1698,15.03913 c 21.1379,-28.30966 49.2795,-51.40457 77.7113,-69.38113 6.167,-3.31217 12.7284,-7.49914 19.5676,-8.3861 0.051,0.0257 0.06,0.0342 0.1113,0.0513 l 15.8778,-5.47888 0.3912,-0.16692 c 0.026,-0.006 0.034,0.006 0.051,0 5.5893,-1.52388 11.8705,-1.80087 18.3935,-1.67728 18.5499,-1.1606 31.2237,11.96142 45.5645,21.07706 35.4222,26.8611 82.7318,44.54269 128.084,27.6182 20.3307,-7.28019 40.0419,-20.07814 54.4538,-38.01703 -28.0312,19.92526 -70.2792,23.2186 -102.9814,11.12563 l -35.1659,-14.08865 c -23.4688,-12.4595 -52.0694,-19.66146 -80.5066,-19.62345 z"
       id="path7453"
       inkscape:connector-curvature="0" />
  </g>
</svg>
