<?xml version="1.0" encoding="UTF-8" standalone="no"?>
<!-- Generator: Adobe Illustrator 13.0.1, SVG Export Plug-In . SVG Version: 6.00 Build 14948)  -->

<svg
   xmlns:dc="http://purl.org/dc/elements/1.1/"
   xmlns:cc="http://creativecommons.org/ns#"
   xmlns:rdf="http://www.w3.org/1999/02/22-rdf-syntax-ns#"
   xmlns:svg="http://www.w3.org/2000/svg"
   xmlns="http://www.w3.org/2000/svg"
   xmlns:sodipodi="http://sodipodi.sourceforge.net/DTD/sodipodi-0.dtd"
   xmlns:inkscape="http://www.inkscape.org/namespaces/inkscape"
   version="1.1"
   id="Layer_1"
   x="0px"
   y="0px"
   width="1600"
   height="1600"
   viewBox="0 0 1600 1600"
   enable-background="new 0 0 380.723 460.896"
   xml:space="preserve"
   inkscape:version="0.48.2 r9819"
   sodipodi:docname="logo_roscosmos.svg"
   inkscape:export-filename="/Users/stuartlowe/Projects/strudel/PSL/logo_roscosmos.png"
   inkscape:export-xdpi="3.5999999"
   inkscape:export-ydpi="3.5999999"><metadata
   id="metadata4902"><rdf:RDF><cc:Work
       rdf:about=""><dc:format>image/svg+xml</dc:format><dc:type
         rdf:resource="http://purl.org/dc/dcmitype/StillImage" /><dc:title></dc:title></cc:Work></rdf:RDF></metadata><defs
   id="defs4900" /><sodipodi:namedview
   pagecolor="#ffffff"
   bordercolor="#666666"
   borderopacity="1"
   objecttolerance="10"
   gridtolerance="10"
   guidetolerance="10"
   inkscape:pageopacity="0"
   inkscape:pageshadow="2"
   inkscape:window-width="502"
   inkscape:window-height="518"
   id="namedview4898"
   showgrid="true"
   inkscape:zoom="0.12801153"
   inkscape:cx="663.5279"
   inkscape:cy="616.96128"
   inkscape:window-x="731"
   inkscape:window-y="8"
   inkscape:window-maximized="0"
   inkscape:current-layer="Layer_1"><inkscape:grid
     type="xygrid"
     id="grid4904"
     empspacing="5"
     visible="true"
     enabled="true"
     snapvisiblegridlinesonly="true" /></sodipodi:namedview>
<g
   id="g4882"
   transform="matrix(3.3620243,0,0,3.3620243,160.00002,160.00001)">
	<path
   d="M 322.134,58.574 C 288.408,24.852 241.833,4.002 190.361,4 138.885,4.002 92.31,24.852 58.583,58.574 24.857,92.301 4.007,138.877 4.007,190.352 c 0,51.475 20.85,98.049 54.575,131.775 33.728,33.725 80.303,54.574 131.776,54.576 51.473,-0.002 98.049,-20.854 131.775,-54.576 33.727,-33.729 54.574,-80.303 54.576,-131.775 10e-4,-51.475 -20.848,-98.051 -54.575,-131.778 z"
   id="path4884"
   inkscape:connector-curvature="0"
   style="fill:#ffffff" />
	<g
   id="g4886">
		<g
   id="g4888">
			<path
   d="M 0,190.369 C 0.002,85.222 85.23,0 190.361,0 l 0,0 V 2 4 C 138.895,4 92.317,24.855 58.585,58.583 l 0,0 C 24.857,92.313 4.002,138.893 3.999,190.368 l 0,0 c 0.003,51.467 20.858,98.042 54.586,131.771 l 0,0 c 33.732,33.728 80.31,54.58 131.776,54.58 l 0,0 c 51.466,0 98.044,-20.854 131.776,-54.58 l 0,0 c 33.729,-33.729 54.584,-80.305 54.584,-131.771 l 0,0 c 0,-51.475 -20.855,-98.055 -54.584,-131.785 l 0,0 C 288.405,24.855 241.827,4 190.361,4 l 0,0 V 2 0 c 105.132,0 190.36,85.222 190.362,190.369 l 0,0 c -0.002,105.129 -85.23,190.353 -190.362,190.354 l 0,0 C 85.23,380.722 0.002,295.498 0,190.369 l 0,0 z"
   id="path4890"
   inkscape:connector-curvature="0"
   style="fill:#c5c9cc" />
		</g>
		<path
   d="m 190.363,136.021 1.286,-0.359 c -64.013,19.866 -114.664,53.902 -115.701,78.897 -1.114,26.754 55.024,33.03 125.355,14.024 70.328,-19.007 128.266,-56.116 129.379,-82.868 0.574,-13.864 -14.234,-22.226 -38.418,-24.425 29.559,1.322 48.07,9.934 48.07,25.319 0,29.314 -67.16,72.115 -149.973,95.589 -82.814,23.469 -149.976,18.725 -149.976,-10.59 0.003,-29.312 67.164,-72.117 149.978,-95.587 l 0,0 z"
   id="path4892"
   inkscape:connector-curvature="0"
   style="fill:#a0a4a7" />
		<polygon
   stroke-miterlimit="2.4142"
   points="258.834,247.467 224.459,208.103 69.773,290.16 277.685,90.565 "
   id="polygon4894"
   style="fill:#db2128;stroke:#db2128;stroke-width:0.5;stroke-miterlimit:2.41420007" />
	</g>
	
</g>
</svg>