<?xml version="1.0" encoding="UTF-8" standalone="no"?>
<!-- Created with Inkscape (http://www.inkscape.org/) -->

<svg
   xmlns:dc="http://purl.org/dc/elements/1.1/"
   xmlns:cc="http://creativecommons.org/ns#"
   xmlns:rdf="http://www.w3.org/1999/02/22-rdf-syntax-ns#"
   xmlns:svg="http://www.w3.org/2000/svg"
   xmlns="http://www.w3.org/2000/svg"
   xmlns:sodipodi="http://sodipodi.sourceforge.net/DTD/sodipodi-0.dtd"
   xmlns:inkscape="http://www.inkscape.org/namespaces/inkscape"
   id="svg2"
   version="1.1"
   inkscape:version="0.48.2 r9819"
   width="1600"
   height="1600"
   xml:space="preserve"
   sodipodi:docname="isro.svg"><metadata
     id="metadata8"><rdf:RDF><cc:Work
         rdf:about=""><dc:format>image/svg+xml</dc:format><dc:type
           rdf:resource="http://purl.org/dc/dcmitype/StillImage" /><dc:title></dc:title></cc:Work></rdf:RDF></metadata><defs
     id="defs6"><inkscape:perspective
       sodipodi:type="inkscape:persp3d"
       inkscape:vp_x="0 : 0.5 : 1"
       inkscape:vp_y="0 : 1000 : 0"
       inkscape:vp_z="1 : 0.5 : 1"
       inkscape:persp3d-origin="0.5 : 0.33333333 : 1"
       id="perspective10" /></defs><sodipodi:namedview
     pagecolor="#ffffff"
     bordercolor="#666666"
     borderopacity="1"
     objecttolerance="10"
     gridtolerance="10"
     guidetolerance="10"
     inkscape:pageopacity="0"
     inkscape:pageshadow="2"
     inkscape:window-width="1280"
     inkscape:window-height="752"
     id="namedview4"
     showgrid="true"
     inkscape:zoom="0.15893066"
     inkscape:cx="-112.29135"
     inkscape:cy="1129.5598"
     inkscape:window-x="0"
     inkscape:window-y="0"
     inkscape:window-maximized="0"
     inkscape:current-layer="g12"><inkscape:grid
       type="xygrid"
       id="grid5185"
       empspacing="5"
       visible="true"
       enabled="true"
       snapvisiblegridlinesonly="true" /></sodipodi:namedview><g
     id="g12"
     inkscape:groupmode="layer"
     inkscape:label="isro"
     transform="matrix(0,1.25,1.25,0,-360.371,1142.964)">



<g
   id="g5163"
   transform="matrix(3.7691684,0,0,3.7691684,-1214.3304,-610.87702)"><path
     inkscape:connector-curvature="0"
     id="path76"
     style="fill:#0e88d3;fill-opacity:1;fill-rule:evenodd;stroke:none"
     d="m 185.13582,356.65344 -4.03545,-18.12375 -10.64618,5.23893 4.11961,18.03538 10.56202,-5.15056" /><path
     inkscape:connector-curvature="0"
     id="path78"
     style="fill:#0e88d3;fill-opacity:1;fill-rule:evenodd;stroke:none"
     d="m 190.28638,378.72427 -4.11961,-18.12375 -10.64618,5.15477 4.20377,18.03117 10.56202,-5.06219" /><path
     inkscape:connector-curvature="0"
     id="path80"
     style="fill:#0e88d3;fill-opacity:1;fill-rule:evenodd;stroke:none"
     d="m 203.93705,437.63592 -4.20797,-18.12375 -10.64618,5.06641 4.20797,18.20791 10.64618,-5.15057" /><path
     inkscape:connector-curvature="0"
     id="path82"
     style="fill:#0e88d3;fill-opacity:1;fill-rule:evenodd;stroke:none"
     d="m 209.00345,459.70255 -4.12381,-18.2037 -10.64197,5.15056 4.20377,18.11954 10.56201,-5.0664" /><path
     inkscape:connector-curvature="0"
     id="path84"
     style="fill:#0e88d3;fill-opacity:1;fill-rule:evenodd;stroke:none"
     d="m 273.39389,432.73784 4.89388,0 0,-13.82741 -4.89388,0 0,13.82741 z" /><path
     inkscape:connector-curvature="0"
     id="path86"
     style="fill:#0e88d3;fill-opacity:1;fill-rule:evenodd;stroke:none"
     d="m 267.12401,422.34835 c -1.11511,0 -2.23023,0.51337 -2.91613,1.20348 -0.77426,0.85843 -1.20348,1.80101 -1.20348,2.83197 0,1.20348 0.42922,2.31859 1.20348,3.00449 0.6859,0.85843 1.80102,1.20348 2.91613,1.20348 1.11932,0 2.06191,-0.34505 2.92034,-1.20348 0.6859,-0.6859 1.20348,-1.80101 1.20348,-3.00449 0,-1.03096 -0.51758,-1.97354 -1.20348,-2.83197 -0.85843,-0.69011 -1.80102,-1.20348 -2.92034,-1.20348" /><path
     inkscape:connector-curvature="0"
     id="path88"
     style="fill:#0e88d3;fill-opacity:1;fill-rule:evenodd;stroke:none"
     d="m 301.46951,455.83963 c -1.28764,-0.25669 -2.57949,-1.20348 -3.95129,-3.0045 -1.03096,-1.46017 -1.88938,-2.83617 -2.49112,-4.3805 -0.85843,-2.31859 -1.19928,-7.55752 -1.28764,-15.97347 -1.3718,0.51337 -2.57529,0.94258 -3.77456,1.46016 -2.74781,1.20348 -4.89387,2.49112 -6.26988,3.86292 -2.65944,2.57949 -4.54882,6.09736 -5.40725,10.04865 l 0,-17.26112 -4.89388,0 0,35.55319 4.89388,0 0,-8.76101 c 0.85843,2.15028 2.06191,4.46887 3.43371,6.6991 l 5.92483,-5.84067 c -3.34955,-5.83646 -5.06641,-10.21696 -5.06641,-12.79224 0,-1.11933 0.60174,-2.06191 1.88939,-3.09287 1.11511,-0.60174 2.31859,-1.376 3.26118,-2.0619 0,4.98224 0.25668,8.50431 0.60174,10.47785 0.6859,3.86293 2.14606,6.95579 4.46466,9.27438 1.03095,1.03096 2.23023,1.6327 3.51787,1.6327 2.92033,0 6.52657,-2.83618 10.90707,-8.67264 l 0,-19.92476 -5.7523,5.7523 0,17.00443" /><path
     inkscape:connector-curvature="0"
     id="path90"
     style="fill:#0e88d3;fill-opacity:1;fill-rule:evenodd;stroke:none"
     d="m 273.39389,496.37505 4.89388,0 0,-32.37616 -4.89388,0 0,32.37616 z m 15.02248,-21.72998 c -1.3718,1.37601 -2.74781,3.09286 -3.6904,5.15477 -1.28764,2.23443 -1.88938,4.3805 -1.88938,6.26988 0,1.97354 0.6859,3.51787 1.88938,4.80972 1.54433,1.54432 3.95129,2.31859 7.03994,2.14607 l 5.92483,-6.09736 c -3.26118,0.25669 -5.66814,-0.34506 -7.21247,-1.80522 -0.94258,-1.19928 -1.54432,-2.74781 -1.54432,-4.72135 0,-1.97775 0.51337,-3.86713 1.28764,-5.75651 l 17.00022,0 0,-7.21247 -24.98696,0 0,7.21247 6.18152,0" /><path
     inkscape:connector-curvature="0"
     id="path92"
     style="fill:#0e88d3;fill-opacity:1;fill-rule:evenodd;stroke:none"
     d="m 273.39389,525.57419 4.89388,0 0,-31.69026 -4.89388,0 0,31.69026 z" /><path
     inkscape:connector-curvature="0"
     id="path94"
     style="fill:#0e88d3;fill-opacity:1;fill-rule:evenodd;stroke:none"
     d="m 300.52271,516.03892 0,-11.24792 c 0,0 0.0884,-1.11932 -0.25669,-1.376 -0.42921,-0.34085 -0.94258,-0.17253 -3.4337,-0.17253 l -7.98674,0 0,10.13701 c -0.16832,2.83197 0,2.65944 3.34955,2.65944 l 8.32758,0 z m -16.22595,5.0664 c -1.3718,-0.94258 -2.06191,-2.23022 -2.06191,-3.77876 l 0,-20.61066 18.63292,0 c 0,0 3.60623,0.17253 5.40724,2.57949 1.03096,1.62848 0.9468,3.94708 0.9468,3.94708 l 0,19.49555 -18.28786,0 c -1.80522,0 -3.34955,-0.60174 -4.63719,-1.6327" /><path
     inkscape:connector-curvature="0"
     id="path96"
     style="fill:#f47216;fill-opacity:1;fill-rule:evenodd;stroke:none"
     d="M 268.58418,348.40581 136.45375,413.58735 363.11214,413.15813 212.353,395.21112 268.58418,348.40581" /><path
     inkscape:connector-curvature="0"
     id="path98"
     style="fill:#f47216;fill-opacity:1;fill-rule:evenodd;stroke:none"
     d="m 273.22137,395.21112 4.97803,0 0,-105.02686 -4.97803,0 0,105.02686 z" /><path
     inkscape:connector-curvature="0"
     id="path100"
     style="fill:#f47216;fill-opacity:1;fill-rule:evenodd;stroke:none"
     d="m 277.77019,391.25983 29.44741,0 0,-7.47337 -29.44741,0 0,7.47337 z" /><path
     inkscape:connector-curvature="0"
     id="path102"
     style="fill:#f47216;fill-opacity:1;fill-rule:evenodd;stroke:none"
     d="m 277.77019,374.51209 c 0,0 4.55303,4.98224 13.30982,3.77876 5.49562,-0.6859 6.61073,-4.54882 6.69489,-6.86742 1.46017,1.03096 9.44691,7.46916 9.44691,7.46916 l 0,-7.29663 -16.05764,-10.13701 -2.48691,2.83617 c 0,0 5.7523,4.20798 6.34984,4.89388 -0.0842,1.37601 -0.94259,3.34955 -5.75231,2.40696 -4.63298,-0.9468 -8.15505,-4.29634 -8.15505,-4.29634 l -3.34955,7.21247" /><path
     inkscape:connector-curvature="0"
     id="path104"
     style="fill:#f47216;fill-opacity:1;fill-rule:evenodd;stroke:none"
     d="m 307.22181,357.4235 0,-7.46916 -12.79225,0 c 0,0 2.23023,-2.83617 1.80102,-7.385 -0.34506,-4.63718 -3.86292,-7.30083 -3.86292,-7.30083 0,0 1.46016,5.23893 -1.20349,10.1328 -2.23022,4.55303 -4.54882,4.55303 -4.54882,4.55303 l -8.84516,0 0,7.46916 29.45162,0" /><path
     inkscape:connector-curvature="0"
     id="path106"
     style="fill:#f47216;fill-opacity:1;fill-rule:evenodd;stroke:none"
     d="m 277.77019,336.29946 c 0,0 4.55303,5.0664 13.30982,3.86292 5.49562,-0.6859 6.61073,-4.55303 6.69489,-7.03994 1.46017,1.03095 9.44691,7.64168 9.44691,7.64168 l 0,-7.21247 -16.05764,-10.22117 -2.48691,2.83618 c 0,0 5.7523,4.03545 6.34984,4.89387 -0.0842,1.28764 -0.94259,3.34955 -5.75231,2.40276 -4.63298,-1.11512 -8.15505,-4.29214 -8.15505,-4.29214 l -3.34955,7.12831" /><path
     inkscape:connector-curvature="0"
     id="path108"
     style="fill:#f47216;fill-opacity:1;fill-rule:evenodd;stroke:none"
     d="m 289.53569,320.58267 c 0,0 -3.0087,-2.66365 -4.29214,-10.04864 -2.15027,-13.22567 6.95158,-14.25241 6.95158,-14.25241 0,0 -3.60624,7.98252 -1.71686,15.37173 2.83197,10.64618 13.65068,15.71258 17.42944,1.3718 3.26118,-11.7655 -5.23893,-16.74353 -5.23893,-16.74353 l -4.3763,6.52657 c 0,0 5.92063,-0.42922 6.86742,5.49561 0.85843,5.92483 -3.52208,6.95578 -3.52208,6.95578 0,0 -3.51786,0.34085 -4.8055,-7.04415 -1.28764,-7.89837 1.46016,-12.88061 1.46016,-12.88061 0,0 -6.87162,-5.15056 -13.91156,0.9468 -6.95158,7.72584 -3.34534,16.8319 -3.34534,16.8319 l -3.26539,0 0,7.46915 11.7655,0" /><path
     inkscape:connector-curvature="0"
     id="path110"
     style="fill:#f47216;fill-opacity:1;fill-rule:evenodd;stroke:none"
     d="m 306.62007,309.6756 9.10185,7.04415 0,-7.385 -8.50011,-5.66814 -0.60174,6.00899" /><path
     inkscape:connector-curvature="0"
     id="path112"
     style="fill:#0e88d3;fill-opacity:1;fill-rule:evenodd;stroke:none"
     d="m 307.22181,429.99003 0,-7.12831 -24.98696,0 0,7.12831 c 8.24342,0 16.65517,0 24.98696,0" /><path
     inkscape:connector-curvature="0"
     id="path114"
     style="fill:#f47216;fill-opacity:1;fill-rule:evenodd;stroke:none"
     d="m 274.25232,390.05635 0.0842,-4.29214 c -7.89837,-2.66365 -10.04444,-5.49561 -8.7568,-12.62392 l -5.7523,2.40275 c -0.6859,7.04415 1.97775,11.16376 14.42494,14.51331" /></g></g></svg>