<?xml version="1.0" encoding="UTF-8" standalone="no"?>
<!-- Created with Inkscape (http://www.inkscape.org/) -->

<svg
   xmlns:dc="http://purl.org/dc/elements/1.1/"
   xmlns:cc="http://creativecommons.org/ns#"
   xmlns:rdf="http://www.w3.org/1999/02/22-rdf-syntax-ns#"
   xmlns:svg="http://www.w3.org/2000/svg"
   xmlns="http://www.w3.org/2000/svg"
   xmlns:sodipodi="http://sodipodi.sourceforge.net/DTD/sodipodi-0.dtd"
   xmlns:inkscape="http://www.inkscape.org/namespaces/inkscape"
   version="1.0"
   width="1600"
   height="1600"
   viewBox="0 0 7529.4118 6330.6959"
   id="Layer_1"
   xml:space="preserve"
   sodipodi:version="0.32"
   inkscape:version="0.48.2 r9819"
   sodipodi:docname="ESA_LOGO.svg"><metadata
   id="metadata63"><rdf:RDF><cc:Work
       rdf:about=""><dc:format>image/svg+xml</dc:format><dc:type
         rdf:resource="http://purl.org/dc/dcmitype/StillImage" /><dc:title></dc:title></cc:Work></rdf:RDF></metadata><sodipodi:namedview
   inkscape:window-height="679"
   inkscape:window-width="577"
   inkscape:pageshadow="2"
   inkscape:pageopacity="0.0"
   guidetolerance="10.0"
   gridtolerance="10.0"
   objecttolerance="10.0"
   borderopacity="1.0"
   bordercolor="#666666"
   pagecolor="#ffffff"
   id="base"
   inkscape:zoom="0.17999134"
   inkscape:cx="711.83223"
   inkscape:cy="725.97819"
   inkscape:window-x="-4"
   inkscape:window-y="0"
   inkscape:current-layer="Layer_1"
   width="170px"
   height="73px"
   showgrid="true"
   inkscape:window-maximized="0"><inkscape:grid
     type="xygrid"
     id="grid5369"
     empspacing="5"
     visible="true"
     enabled="true"
     snapvisiblegridlinesonly="true" /></sodipodi:namedview><defs
   id="defs120" />
<g
   id="g3"
   transform="matrix(6.5882353,0,0,6.5882353,1129.4118,2224.1715)">
	<g
   id="g5">
		<path
   d="m 19.093,215.859 c 16.627,28.637 41.878,50.808 72.67,62.817 -19.707,-12.01 -38.182,-26.174 -54.811,-43.417 -6.467,-5.851 -12.01,-12.317 -17.859,-19.4 z"
   style="fill:#4b7ab7"
   id="path7"
   inkscape:connector-curvature="0" />
		<path
   d="m 3.696,176.136 c 1.539,6.158 3.387,12.01 5.235,17.552 9.545,13.549 19.707,25.868 31.715,37.875 22.787,22.171 47.73,40.339 74.52,54.197 6.158,1.23 12.625,2.155 18.475,2.771 C 101.308,274.057 71.133,253.734 44.958,227.56 28.639,211.855 15.397,194.304 3.696,176.136 z"
   style="fill:#4b7ab7"
   id="path9"
   inkscape:connector-curvature="0" />
		<path
   d="m 0,147.499 c 0,4.619 0.616,9.236 0.925,13.549 12.624,22.478 28.637,43.727 47.728,62.817 29.562,29.562 63.743,51.117 100.386,64.973 4.619,0 9.239,-0.307 13.856,-0.923 C 122.558,274.673 84.683,251.886 52.35,219.555 30.485,198 13.549,173.365 0,147.499 z"
   style="fill:#4b7ab7"
   id="path11"
   inkscape:connector-curvature="0" />
		<path
   d="m 1.541,124.712 c -0.616,3.696 -0.925,7.391 -0.925,11.086 12.933,28.944 31.717,56.041 55.736,80.061 34.488,34.181 75.134,57.275 118.552,69.901 3.696,-0.616 7.391,-1.541 11.087,-2.773 C 140.109,271.903 96.383,247.883 60.047,211.856 34.181,185.99 14.781,155.813 1.541,124.712 z"
   style="fill:#4b7ab7"
   id="path13"
   inkscape:connector-curvature="0" />
		<path
   d="m 5.542,104.389 c -0.923,3.08 -1.846,6.467 -2.155,9.545 12.933,34.181 33.258,66.514 60.971,94.228 37.566,37.259 83.141,61.276 131.793,71.438 2.771,-0.923 5.85,-2.155 9.237,-3.694 C 154.889,266.667 106.853,242.65 68.052,204.466 38.8,174.904 18.168,141.341 5.542,104.389 z"
   style="fill:#4b7ab7"
   id="path15"
   inkscape:connector-curvature="0" />
		<path
   d="m 12.01,87.144 c -1.232,2.773 -2.155,5.544 -3.694,8.316 12.008,38.798 32.947,74.211 63.434,104.696 40.337,40.337 90.222,63.74 141.955,71.747 2.771,-1.539 4.926,-3.387 7.697,-4.619 C 168.439,260.819 116.706,237.106 75.751,196.46 44.343,164.742 23.096,127.483 12.01,87.144 z"
   style="fill:#4b7ab7"
   id="path17"
   inkscape:connector-curvature="0" />
		<path
   d="m 61.895,163.819 c -8.313,-1.848 -14.781,-9.238 -14.781,-18.475 0,-0.925 0,-1.848 0,-2.771 C 34.181,120.402 24.942,96.382 19.4,72.056 c -1.232,2.155 -2.771,4.619 -3.694,7.39 10.161,41.571 31.407,80.676 63.74,113.009 41.878,41.571 94.841,64.975 149.038,70.208 2.155,-1.846 4.617,-3.387 6.774,-5.233 C 179.831,253.734 125.943,230.639 83.756,188.761 75.75,180.755 68.362,172.441 61.895,163.819 z"
   style="fill:#4b7ab7"
   id="path19"
   inkscape:connector-curvature="0" />
		<path
   d="M 53.581,131.486 C 41.262,108.392 32.333,84.065 28.33,58.507 c -1.539,2.464 -2.771,4.31 -4.619,6.467 4.619,24.942 13.242,48.959 26.175,71.131 0.924,-1.848 2.463,-3.08 3.695,-4.619 z"
   style="fill:#4b7ab7"
   id="path21"
   inkscape:connector-curvature="0" />
		<path
   d="m 74.52,161.971 c -1.541,0.925 -3.696,1.848 -5.544,1.848 5.544,7.391 12.01,14.165 18.477,21.246 43.11,42.495 97.921,64.975 153.964,67.437 1.846,-1.846 3.694,-3.694 5.849,-5.542 -56.657,-0.923 -112.7,-23.094 -155.503,-66.205 -6.158,-5.851 -11.7,-12.317 -17.243,-18.784 z"
   style="fill:#4b7ab7"
   id="path23"
   inkscape:connector-curvature="0" />
		<path
   d="m 225.097,239.878 c 8.93,0.923 18.166,1.539 27.404,1.539 1.232,-1.539 2.771,-3.387 4.003,-4.62 -8.313,2.155 -17.552,3.081 -26.791,3.081 -1.228,0 -3.077,0 -4.616,0 z"
   style="fill:#4b7ab7"
   id="path25"
   inkscape:connector-curvature="0" />
		<path
   d="m 99.463,173.058 c -5.852,-6.158 -12.01,-12.626 -17.245,-19.093 -0.923,1.848 -1.848,3.387 -3.08,4.619 4.928,6.468 10.164,12.626 16.322,18.477 29.869,29.56 65.896,48.96 104.387,58.198 -11.701,-3.696 -21.862,-8.622 -31.101,-15.704 -25.25,-10.471 -48.96,-26.174 -69.283,-46.497 z"
   style="fill:#4b7ab7"
   id="path27"
   inkscape:connector-curvature="0" />
		<path
   d="M 64.359,127.483 C 49.885,102.541 41.263,74.827 37.875,47.114 c -1.846,1.848 -3.078,3.696 -4.926,5.542 3.696,26.791 12.317,52.04 25.25,76.059 1.847,-0.923 3.696,-1.232 6.16,-1.232 z"
   style="fill:#4b7ab7"
   id="path29"
   inkscape:connector-curvature="0" />
		<path
   d="m 152.118,203.542 c -1.848,-2.464 -3.696,-4.619 -5.544,-7.39 -13.856,-8.313 -27.097,-19.091 -39.107,-31.101 C 71.133,129.638 51.424,84.065 48.037,36.952 c -1.846,1.848 -3.694,3.08 -5.542,4.926 3.387,30.178 12.626,59.123 28.33,85.914 7.699,2.462 13.858,9.236 13.858,17.552 0,0.923 0,1.846 0,2.771 5.542,7.39 11.701,14.165 18.475,21.246 15.704,15.704 33.256,28.639 52.349,38.184 0,-0.309 0,-0.309 0,-0.309 -0.926,-0.923 -1.85,-2.462 -3.389,-3.694 z"
   style="fill:#4b7ab7"
   id="path31"
   inkscape:connector-curvature="0" />
		<path
   d="M 114.857,157.352 C 79.137,121.941 60.046,75.753 58.814,28.639 c -1.846,1.232 -3.694,2.771 -5.542,4.003 2.155,47.112 21.555,93.302 57.891,128.713 9.239,9.238 19.4,17.552 29.869,24.635 -1.232,-2.771 -2.771,-6.158 -4.003,-9.854 -7.391,-5.543 -14.781,-12.01 -22.172,-18.784 z"
   style="fill:#4b7ab7"
   id="path33"
   inkscape:connector-curvature="0" />
		<path
   d="m 191.532,192.765 c 10.469,8.313 24.327,13.855 39.107,13.855 8.006,0 15.396,-1.23 21.862,-3.694 -20.938,0 -41.261,-3.08 -60.969,-10.161 z"
   style="fill:#4b7ab7"
   id="path35"
   inkscape:connector-curvature="0" />
		<path
   d="M 122.557,149.347 C 86.837,114.55 69.285,67.746 69.285,21.248 c -1.848,0.923 -3.696,2.155 -5.542,3.078 0.923,47.114 19.091,93.918 55.118,129.331 5.235,4.926 10.162,9.546 15.706,14.165 -0.925,-3.08 -1.232,-5.852 -1.848,-8.623 -3.081,-3.386 -6.775,-6.157 -10.162,-9.852 z"
   style="fill:#4b7ab7"
   id="path37"
   inkscape:connector-curvature="0" />
		<path
   d="m 131.793,143.496 c -0.307,-0.309 -0.923,-0.923 -1.23,-0.923 C 95.459,107.469 78.523,60.971 80.369,14.781 c -1.846,0.925 -3.694,2.155 -5.542,3.08 -0.923,46.188 16.32,93.302 52.04,127.79 1.232,1.848 3.08,3.696 4.926,5.542 0,-2.771 0,-5.542 0,-7.697 z"
   style="fill:#4b7ab7"
   id="path39"
   inkscape:connector-curvature="0" />
		<path
   d="m 177.061,174.904 c 1.539,3.08 2.771,5.851 4.617,8.315 26.483,11.394 55.12,15.704 82.833,13.855 3.08,-1.848 5.852,-4.31 8.623,-6.465 -32.332,4.004 -65.897,-0.924 -96.073,-15.705 z"
   style="fill:#4b7ab7"
   id="path41"
   inkscape:connector-curvature="0" />
		<path
   d="m 173.365,160.432 c 0.616,2.771 0.923,5.235 1.539,7.391 32.333,16.629 69.285,22.171 104.389,16.32 0.307,-0.616 0.307,-0.616 0.923,-0.923 1.232,-1.848 2.771,-3.696 3.696,-6.159 -36.952,8.004 -76.675,2.462 -110.547,-16.629 z"
   style="fill:#4b7ab7"
   id="path43"
   inkscape:connector-curvature="0" />
		<path
   d="M 133.334,129.331 C 102.85,95.459 88.685,52.04 92.072,9.545 c -1.848,0.925 -4.312,1.848 -6.158,2.773 -2.157,44.34 13.24,89.606 46.495,124.403 0,-0.923 0,-1.848 0.309,-2.771 0,-1.541 0.616,-3.387 0.616,-4.619 z"
   style="fill:#4b7ab7"
   id="path45"
   inkscape:connector-curvature="0" />
		<path
   d="m 103.773,5.852 c -2.464,0.616 -4.31,0.923 -6.158,1.848 -3.696,40.646 8.929,82.218 36.952,115.165 0.923,-1.846 1.539,-4.31 2.462,-6.465 C 110.547,84.989 99.463,44.649 103.773,5.852 z"
   style="fill:#4b7ab7"
   id="path47"
   inkscape:connector-curvature="0" />
		<path
   d="m 185.374,154.581 c -4.003,-2.462 -8.623,-4.619 -12.933,-7.391 0,2.157 0,4.62 0,6.774 35.104,20.325 75.75,26.483 114.241,17.245 0.923,-1.848 1.232,-3.696 1.848,-5.542 0,-0.616 0,-0.616 0,-0.616 -30.178,8.006 -62.511,6.158 -91.456,-5.542 l -11.701,0 0,-4.928 0.001,0 z"
   style="fill:#4b7ab7"
   id="path49"
   inkscape:connector-curvature="0" />
		<path
   d="m 172.442,141.341 c 4.31,2.771 8.929,4.926 12.933,7.082 l 0,-5.85 c -4.003,-2.157 -8.313,-4.928 -12.317,-7.699 -0.616,2.154 -0.616,4.619 -0.616,6.467 z"
   style="fill:#4b7ab7"
   id="path51"
   inkscape:connector-curvature="0" />
		<path
   d="m 214.011,159.509 c 24.635,6.465 50.808,6.465 75.443,-0.309 0,-1.848 0,-3.694 0.307,-6.158 -0.614,0.616 -1.846,0.616 -2.771,0.923 0,1.848 -0.307,3.696 -0.307,5.544 l -72.672,0 0,0 z"
   style="fill:#4b7ab7"
   id="path53"
   inkscape:connector-curvature="0" />
		<path
   d="m 114.857,3.08 c -1.846,0 -3.694,0.616 -5.542,0.923 -4.619,37.568 4.926,75.75 29.562,106.853 0.923,-1.848 1.848,-4.312 2.771,-6.16 C 118.861,75.136 110.24,38.184 114.857,3.08 z"
   style="fill:#4b7ab7"
   id="path55"
   inkscape:connector-curvature="0" />
		<path
   d="M 148.115,94.534 C 128.099,66.821 121.324,33.258 126.251,0.925 c -1.846,0.307 -3.694,0.307 -5.849,0.923 -5.235,33.565 3.078,69.285 24.017,97.921 l 0,0 c 1.232,-1.539 2.155,-3.387 3.696,-5.235 z"
   style="fill:#4b7ab7"
   id="path57"
   inkscape:connector-curvature="0" />
		<path
   d="m 289.761,144.419 c 0,-0.307 0,-1.232 0,-2.155 -1.23,0.309 -2.155,0.923 -3.694,1.232 0,1.232 0.616,3.078 0.616,4.926 0.923,-0.307 2.464,-0.307 3.078,-0.923 0,-1.232 0,-2.155 0,-3.08 z"
   style="fill:#4b7ab7"
   id="path59"
   inkscape:connector-curvature="0" />
		<path
   d="m 173.981,128.715 c 3.694,2.771 7.697,5.542 11.394,8.007 l 0,-6.158 1.539,0 c -4.31,-2.155 -8.006,-4.62 -11.701,-7.391 -0.309,1.846 -0.925,3.694 -1.232,5.542 z"
   style="fill:#4b7ab7"
   id="path61"
   inkscape:connector-curvature="0" />
		<path
   d="m 289.761,136.722 c 0,-1.848 -0.307,-3.696 -0.307,-5.542 -1.848,0.307 -3.387,0.923 -5.235,1.23 0.616,1.848 0.925,3.696 0.925,5.544 1.539,-0.309 3.387,-0.926 4.617,-1.232 z"
   style="fill:#4b7ab7"
   id="path63"
   inkscape:connector-curvature="0" />
		<path
   d="m 137.954,0 c -1.848,0 -4.312,0.309 -6.16,0.309 -5.542,31.101 0.925,63.434 19.4,90.222 1.539,-1.846 2.464,-3.387 3.696,-4.617 C 137.954,60.355 132.409,28.946 137.954,0 z"
   style="fill:#4b7ab7"
   id="path65"
   inkscape:connector-curvature="0" />
		<path
   d="m 212.779,130.563 c -11.701,-4.003 -22.785,-10.162 -32.947,-17.861 -0.925,1.232 -1.848,3.08 -2.771,4.928 6.465,5.233 13.549,9.237 20.937,12.933 l 14.781,0 z"
   style="fill:#4b7ab7"
   id="path67"
   inkscape:connector-curvature="0" />
		<path
   d="m 149.038,0 c -1.539,0 -2.771,0 -3.694,0 -0.925,0 -1.541,0 -1.848,0 -6.158,27.713 -0.616,57.275 15.704,82.218 1.232,-1.539 2.771,-2.771 4.003,-3.694 C 148.115,54.813 143.496,26.174 149.038,0 z"
   style="fill:#4b7ab7"
   id="path69"
   inkscape:connector-curvature="0" />
		<path
   d="m 288.531,125.635 c 0,-1.846 -0.616,-4.31 -0.616,-6.158 -2.157,0.925 -4.003,1.541 -6.467,2.464 0.923,1.848 1.539,3.694 1.848,5.542 1.848,-0.923 3.694,-1.539 5.235,-1.848 z"
   style="fill:#4b7ab7"
   id="path71"
   inkscape:connector-curvature="0" />
		<path
   d="m 244.189,130.563 c 0,-1.232 0,-3.081 0,-4.62 -20.323,-1.232 -40.339,-8.623 -57.275,-21.555 -0.616,0.307 -0.923,0.923 -1.539,1.232 -0.925,0.923 -1.848,1.848 -2.771,2.462 15.704,12.319 33.256,19.709 51.73,22.48 l 9.855,0 0,10e-4 z"
   style="fill:#4b7ab7"
   id="path73"
   inkscape:connector-curvature="0" />
		<path
   d="m 160.123,0.309 c -1.846,0 -3.694,0 -5.542,-0.309 -5.542,25.251 -1.539,52.656 13.242,75.136 1.539,-0.925 2.771,-1.848 4.619,-2.771 C 158.584,50.81 154.581,24.942 160.123,0.309 z"
   style="fill:#4b7ab7"
   id="path75"
   inkscape:connector-curvature="0" />
		<path
   d="m 286.683,114.55 c 0,-1.848 -0.616,-3.694 -0.925,-5.542 -2.771,0.923 -5.233,1.848 -8.004,2.155 0.923,1.848 1.539,3.694 2.462,5.542 2.154,-0.923 4.003,-1.232 6.467,-2.155 z"
   style="fill:#4b7ab7"
   id="path77"
   inkscape:connector-curvature="0" />
		<path
   d="m 240.492,114.55 c -15.395,-1.539 -29.56,-7.082 -42.495,-16.32 -2.462,0.923 -4.31,1.848 -6.158,2.771 15.397,11.701 32.949,18.168 50.81,19.4 -0.308,-1.847 -1.232,-4.003 -2.157,-5.851 z"
   style="fill:#4b7ab7"
   id="path79"
   inkscape:connector-curvature="0" />
		<path
   d="m 283.912,103.466 c -0.616,-1.541 -0.925,-3.387 -1.542,-5.235 -3.078,0.923 -6.465,2.464 -9.545,3.387 0.925,1.232 1.848,3.078 2.771,4.926 2.771,-0.923 5.544,-1.848 8.316,-3.078 z"
   style="fill:#4b7ab7"
   id="path81"
   inkscape:connector-curvature="0" />
		<path
   d="m 226.636,100.695 c -2.464,-0.925 -5.235,-1.848 -7.39,-2.773 -4.62,-1.539 -9.855,-1.539 -14.472,-0.923 9.853,5.851 20.939,9.545 31.408,11.394 -2.771,-3.081 -5.851,-5.852 -9.546,-7.698 z"
   style="fill:#4b7ab7"
   id="path83"
   inkscape:connector-curvature="0" />
		<path
   d="m 171.209,2.157 c -1.848,-0.309 -3.696,-0.925 -5.542,-0.925 -5.544,23.094 -1.848,48.037 12.007,68.976 1.232,-0.923 3.081,-1.846 4.929,-2.462 -12.933,-19.4 -16.936,-43.42 -11.394,-65.589 z"
   style="fill:#4b7ab7"
   id="path85"
   inkscape:connector-curvature="0" />
		<path
   d="m 280.525,93.304 c -0.925,-1.848 -1.232,-3.696 -2.157,-5.544 -3.694,1.848 -8.004,3.08 -12.008,3.696 1.232,1.848 2.155,3.694 3.694,4.926 3.696,-0.923 6.774,-1.848 10.471,-3.078 z"
   style="fill:#4b7ab7"
   id="path87"
   inkscape:connector-curvature="0" />
		<path
   d="m 181.678,4.619 c -1.846,-0.616 -3.694,-0.923 -5.542,-1.539 -4.926,21.246 -1.232,44.343 12.01,63.434 1.848,-0.923 4.311,-0.923 6.159,-1.539 C 180.755,47.423 176.752,24.942 181.678,4.619 z"
   style="fill:#4b7ab7"
   id="path89"
   inkscape:connector-curvature="0" />
		<path
   d="M 208.161,63.743 C 192.765,48.346 187.836,27.1 192.456,7.699 190.61,7.39 188.762,6.467 186.914,5.851 c -4.619,20.016 0,41.571 13.858,58.198 2.154,0 4.616,-0.306 7.389,-0.306 z"
   style="fill:#4b7ab7"
   id="path91"
   inkscape:connector-curvature="0" />
		<path
   d="m 262.663,86.837 0,0 c 4.62,-0.616 9.239,-1.848 13.242,-3.696 -0.309,-1.846 -1.232,-3.694 -2.155,-5.233 -5.235,1.846 -10.778,3.387 -16.32,3.694 1.846,1.848 3.694,3.387 5.233,5.235 z"
   style="fill:#4b7ab7"
   id="path93"
   inkscape:connector-curvature="0" />
		<path
   d="M 216.475,56.659 C 203.85,44.649 199.846,27.713 202.926,12.01 c -1.848,-0.923 -3.696,-1.848 -5.542,-2.464 -4.003,17.554 0.923,37.568 14.779,51.426 1.541,0.923 2.464,2.155 3.696,3.078 5.542,0.616 11.084,1.848 16.629,3.387 -5.852,-2.462 -11.394,-6.159 -16.013,-10.778 z"
   style="fill:#4b7ab7"
   id="path95"
   inkscape:connector-curvature="0" />
		<path
   d="m 270.979,73.288 c -0.925,-1.848 -1.848,-3.696 -2.773,-4.926 -10.162,3.694 -20.939,3.694 -31.101,0.923 5.235,1.848 9.854,4.62 14.474,7.698 6.465,-0.001 13.24,-1.231 19.4,-3.695 z"
   style="fill:#4b7ab7"
   id="path97"
   inkscape:connector-curvature="0" />
		<path
   d="m 265.435,63.743 c -1.539,-1.848 -2.462,-3.387 -3.694,-5.235 -12.933,3.696 -27.407,0.616 -37.568,-9.545 -8.62,-8.93 -12.316,-20.939 -11.084,-32.333 -1.848,-0.923 -3.696,-1.848 -5.542,-2.464 -2.157,13.548 1.846,28.329 12.624,38.8 12.008,12.009 29.56,15.703 45.264,10.777 z"
   style="fill:#4b7ab7"
   id="path99"
   inkscape:connector-curvature="0" />
		<path
   d="m 258.044,53.888 c -1.539,-1.232 -2.771,-3.078 -4.31,-4.926 -7.698,0.923 -15.704,-1.848 -21.555,-8.007 -5.235,-4.926 -8.007,-11.394 -8.313,-17.859 -1.848,-0.925 -3.696,-2.464 -5.542,-3.387 -0.616,8.93 2.771,18.475 9.545,25.557 8.313,8.315 19.397,11.086 30.175,8.622 z"
   style="fill:#4b7ab7"
   id="path101"
   inkscape:connector-curvature="0" />
		<path
   d="m 249.115,43.727 c -5.851,-5.852 -12.316,-11.394 -19.4,-16.627 0.925,3.694 2.773,7.388 6.161,10.162 3.693,3.693 8.313,6.157 13.239,6.465 z"
   style="fill:#4b7ab7"
   id="path103"
   inkscape:connector-curvature="0" />
	</g>
	<g
   id="g105">
		<path
   d="m 531.794,174.904 c 2.462,12.935 7.391,22.48 19.398,26.174 14.474,4.312 32.333,3.387 41.265,-8.313 3.078,-4.003 3.694,-10.162 2.155,-15.088 -2.155,-8.006 -9.238,-9.854 -23.094,-12.625 -12.009,-2.771 -41.571,-5.852 -57.275,-17.861 -12.626,-9.545 -19.091,-28.021 -12.626,-48.343 7.698,-21.864 29.869,-31.41 46.498,-33.872 30.794,-4.619 55.736,7.082 66.512,18.166 8.315,8.623 13.858,22.48 13.242,36.029 l -34.181,0 c -0.307,-4.312 -0.923,-8.313 -2.771,-12.009 -4.003,-9.239 -13.855,-14.781 -24.326,-14.781 -12.007,-0.923 -24.633,2.155 -29.56,12.317 -1.848,3.696 -1.848,10.162 1.23,13.858 7.391,8.313 21.864,8.929 34.181,11.084 21.246,3.696 44.342,7.39 54.504,24.942 11.701,20.323 5.233,43.419 -2.157,52.656 -5.233,6.467 -11.084,12.319 -19.091,16.936 -13.24,7.39 -36.027,10.162 -58.198,6.467 -20.323,-3.08 -34.181,-13.242 -41.878,-25.865 -6.158,-9.548 -9.854,-17.861 -9.854,-29.871 l 36.026,0 0,-0.001 z"
   style="fill:#0e2180"
   id="path107"
   inkscape:connector-curvature="0" />
		<path
   d="m 376.905,130.563 57.892,0 c 0.923,-13.242 -9.239,-28.023 -22.788,-32.333 -12.007,-3.696 -24.942,-1.232 -35.718,7.391 -9.547,8.929 -12.935,27.404 -12.935,38.798 0.616,21.555 4.619,36.952 17.245,46.19 8.313,5.85 26.791,13.856 43.417,1.846 7.391,-5.542 10.778,-12.933 12.01,-18.475 l 41.262,0 c -0.923,12.933 -13.549,33.565 -25.865,42.801 -22.171,16.322 -51.424,19.4 -74.211,10.778 -49.269,-18.475 -57.275,-65.589 -53.579,-93.609 1.846,-11.703 6.158,-23.71 12.007,-34.181 11.703,-18.475 28.33,-31.408 51.424,-35.104 24.942,-3.694 49.885,4.003 66.207,22.171 9.236,10.471 17.859,28.021 21.246,42.494 1.848,9.545 3.694,19.707 2.771,30.178 l -100.385,0 0,-28.945 z"
   style="fill:#0e2180"
   id="path109"
   inkscape:connector-curvature="0" />
		<g
   id="g111">
			<path
   d="m 723.634,201.078 0,29.562 c 12.933,-2.771 23.094,-8.623 32.949,-16.629 0.307,2.464 2.771,11.087 4.619,13.549 l 38.798,0 c -6.159,-12.008 -5.235,-29.56 -5.235,-39.414 l 0,-49.576 c -0.307,-12.935 -0.307,-25.868 -3.078,-37.875 C 788.916,88.685 778.138,68.669 743.957,64.666 737.49,64.05 730.715,64.05 723.634,64.05 l 0,29.562 c 9.238,-0.307 18.475,1.848 24.942,8.006 4.31,4.003 5.542,9.545 4.31,15.704 -2.462,9.546 -12.933,12.933 -29.252,15.088 l 0,25.251 c 4.31,-0.309 8.929,-1.232 13.855,-2.771 10.162,-2.155 12.626,-4.003 17.552,-7.7 0,3.696 0.616,29.871 -1.846,35.104 -4.003,11.087 -15.705,17.552 -29.561,18.784 z"
   style="fill:#0e2180"
   id="path113"
   inkscape:connector-curvature="0" />
			<path
   d="m 723.634,93.611 0,-29.562 c -11.394,0.616 -23.71,2.464 -33.256,6.159 -20.323,8.315 -30.487,28.022 -30.487,48.961 l 36.952,0 c -0.923,-10.777 6.774,-20.323 14.474,-23.094 3.078,-1.541 7.697,-2.464 12.317,-2.464 z"
   style="fill:#0e2180"
   id="path115"
   inkscape:connector-curvature="0" />
			<path
   d="m 723.634,157.661 0,-25.251 c -5.542,0.925 -12.01,1.541 -19.091,2.464 -19.4,2.155 -47.114,11.701 -53.581,40.03 -2.155,11.086 -0.307,31.41 16.629,44.651 11.701,8.929 27.714,12.933 40.339,12.624 5.542,0 11.084,-0.616 15.704,-1.539 l 0,-29.562 c -2.771,0.616 -5.852,0.923 -9.239,0.616 -9.239,0 -17.243,-4.62 -20.323,-11.701 -3.694,-6.774 -1.539,-13.858 0.923,-17.861 5.544,-9.852 15.09,-11.7 28.639,-14.471 z"
   style="fill:#0e2180"
   id="path117"
   inkscape:connector-curvature="0" />
		</g>
	</g>
</g>
<path
   style="fill:#0e2180;fill-opacity:1"
   id="path1927"
   d="m 5904.1611,2665.9205 c 0.6128,3.3344 0.9909,6.9296 1.4803,10.3608 0.9798,5.6934 1.1899,11.4555 1.3915,17.2144 0.1714,5.9472 0.1253,11.8968 0.1317,17.8454 0,5.0348 0.066,10.0695 0.072,15.1042 0,3.7586 0.011,7.5166 0,11.2752 0,3.8843 0,7.7694 0,11.6538 -0.1384,5.8016 -0.099,11.6032 -0.066,17.4054 0.4282,3.8504 -0.2109,7.6221 -0.5271,11.4202 -1.6681,10.0596 -24.7217,22.3321 -20.3952,7.203 2.7796,-9.5736 3.0359,-19.4816 3.2868,-29.3586 -0.011,-5.635 -0.1448,-11.2686 -0.2568,-16.9014 -0.1845,-4.208 0.6061,-8.3606 1.195,-12.5058 0.7149,-4.1414 1.7722,-8.2051 2.7875,-12.2785 0.952,-3.3027 1.8407,-6.6173 2.7941,-9.9193 0.8888,-3.161 0.9506,-6.4361 1.153,-9.6854 0.1844,-3.105 -1.7183,-4.8186 -3.2013,-7.2128 -1.8572,-2.3216 -3.694,-4.6532 -5.5637,-6.9651 -1.3382,-2.0601 -2.7052,-4.1025 -4.0848,-6.1264 -0.4348,-2.5107 -2.0232,-4.3819 -3.0899,-6.5901 -0.5533,-0.8433 -1.1851,-1.6294 -1.7748,-2.4398 l 20.691,-12.3403 c 0.639,0.9323 1.2795,1.8598 1.9126,2.7961 1.1805,2.1602 2.6333,4.101 3.0885,6.5888 1.3058,1.9205 2.6353,3.8402 3.8785,5.8108 1.8098,2.3046 3.5933,4.6296 5.4294,6.911 1.9468,2.8179 4.0023,5.1205 4.0794,8.7664 -0.1515,3.3989 -0.1779,6.8202 -0.9289,10.1598 -1.0021,3.329 -1.7888,6.6988 -2.8053,10.0292 -1.0746,3.9944 -2.2506,7.971 -2.912,12.0678 -0.6193,3.9957 -1.5021,8.0198 -1.4171,12.086 0,5.7226 0.066,11.4464 -0.099,17.1676 -0.3557,9.97 -0.6259,19.9828 -2.9535,29.7413 -1.5495,9.7104 -25.0254,27.0289 -22.3756,13.4789 0.5139,-3.7125 1.3868,-7.3156 0.9401,-11.1282 0.066,-5.7824 0.079,-11.565 -0.066,-17.3469 0,-3.8797 0,-7.7595 0,-11.6387 0,-3.764 0,-7.5272 0,-11.2904 0.066,-5.0636 0.1055,-10.1272 0.099,-15.191 0.011,-5.9295 0,-11.8602 -0.093,-17.789 -0.2041,-5.6533 -0.3755,-11.3198 -1.3129,-16.9133 -0.5864,-3.4851 -0.7392,-7.2009 -2.0905,-10.4667 l 21.5863,-10.9984 z"
   inkscape:connector-curvature="0" /><path
   style="fill:#0e2180;fill-opacity:1"
   id="path1929"
   d="m 5900.9262,2703.1263 c -0.2371,4.2804 -0.2437,8.5694 -0.2898,12.8542 -0.079,7.6853 -0.066,15.3712 -0.011,23.0562 0,7.5528 1.7169,14.873 3.5569,22.1424 1.7677,4.5862 2.9885,9.3 4.146,14.0542 0.5798,4.0898 0.5007,8.2286 0.5666,12.3475 -0.3294,3.2777 0.9124,6.2121 1.7466,9.2909 0.8394,2.7525 2.3052,5.2256 3.6432,7.7477 1.4007,2.1891 2.2598,4.6413 3.3429,6.9703 0.5534,2.6359 0,5.318 -0.2898,7.9612 0,0.9915 -0.1977,1.9646 -0.2966,2.947 l -21.5882,10.4726 c 0.1449,-0.9046 0.7378,-1.7327 0.4282,-2.713 0.2438,-2.3692 0.4546,-4.7462 0.7023,-7.112 -0.9922,-2.1715 -1.7808,-4.4636 -3.08,-6.5072 -1.4092,-2.717 -2.9397,-5.3852 -3.8713,-8.3229 -1.0481,-3.2349 -2.2452,-6.4229 -2.0009,-9.8917 0,-3.9963 0.066,-8.0066 -0.4084,-11.9846 -0.9817,-4.7514 -2.0384,-9.46 -3.7559,-14.0282 -1.8572,-7.4554 -3.5827,-14.9626 -3.8226,-22.6821 0,-7.6819 0.072,-15.3651 -0.011,-23.0469 -0.066,-4.1862 -0.066,-8.3764 -0.2898,-12.5572 l 21.5857,-10.9984 z"
   inkscape:connector-curvature="0" /><path
   style="fill:#0e2180;fill-opacity:1"
   id="path1931"
   d="m 5889.0464,2828.59 c -0.5205,-2.8271 -0.8044,-5.714 -1.1378,-8.5779 -0.2174,-2.3335 -0.2306,-4.6777 -0.3162,-7.0178 l 21.3004,-10.9034 c 0.066,2.2952 0.066,4.5938 0.2305,6.8853 0.3163,2.8935 0.3493,5.9024 1.5114,8.6154 l -21.5856,10.9984 z"
   inkscape:connector-curvature="0" /><path
   style="fill:#0e2180;fill-opacity:1"
   id="path1933"
   d="m 5905.7792,3105.9191 c -0.145,2.7585 -0.1317,5.5222 -0.1647,8.2834 0,4.0148 0.011,8.0298 0,12.0446 -0.2371,3.395 0.2173,6.7048 0.6456,10.055 0.6674,4.4562 0.7314,8.9653 0.8466,13.4598 0.072,4.9997 0.072,9.9995 0.079,15 0,4.3391 0,8.6786 0,13.0184 0,4.2178 0,8.4349 0,12.6527 -0.085,4.7837 -0.066,9.5681 0,14.3524 0,3.5788 0.066,7.1582 0.066,10.7375 0,3.2322 0,6.4651 0,9.6979 -0.092,3.117 0.066,6.2378 0.1318,9.3442 -1.2564,2.4316 1.344,3.9377 1.7517,5.1335 2.7619,0.865 3.9977,3.1828 5.8246,5.0993 0.6128,0.9033 0.7643,1.9864 1.1458,2.9792 l -21.037,11.503 c 0,0 -0.5994,-2.3915 -0.832,-2.3843 -1.6853,-1.3795 -2.8928,-3.4726 -5.2659,-4.0866 -1.5299,-2.4574 -3.5723,-3.5392 -2.8053,-7.0699 -0.1253,-3.1952 -0.4283,-6.4228 -0.2504,-9.6471 0,-3.2335 0,-6.4676 0,-9.7019 0.011,-3.5938 0,-7.1877 0.066,-10.7817 0,-4.7797 0.072,-9.5594 0,-14.3385 0,-4.2231 0,-8.4462 0,-12.6692 0,-4.3475 -0.011,-8.6945 0.066,-13.0421 0,-4.986 0,-9.9719 -0.066,-14.9579 -0.1185,-4.3845 -0.1779,-8.7835 -0.8163,-13.1323 -0.5467,-3.4522 -1.1113,-6.8518 -0.8168,-10.368 0,-4.0234 0.066,-8.0468 0,-12.0703 -0.066,-2.7044 0,-5.4108 -0.1647,-8.1127 l 21.5864,-10.9984 z"
   inkscape:connector-curvature="0" /><path
   style="fill:#0e2180;fill-opacity:1"
   id="path1935"
   d="m 5907.3966,3557.2409 c -0.1384,2.4428 -0.099,4.8911 -0.1251,7.3372 -0.011,3.3278 0,6.6555 0,9.984 0,3.6366 0,7.2727 -0.066,10.9094 0.4084,7.5053 2.0305,14.8901 3.2335,22.2999 0.9078,6.1099 1.3216,12.2646 1.5752,18.4291 0.093,4.8536 0.066,9.7079 0.066,14.5614 0,5.5381 -0.066,11.0749 -0.1055,16.6122 -0.066,5.5994 0.066,11.1981 0.099,16.7968 -0.2701,4.2712 0.2107,8.4659 0.6699,12.6942 0.5864,3.5287 0.7261,7.0975 0.9218,10.6604 -0.2438,3.2388 0.3886,6.384 0.7233,9.5734 0.5997,3.248 1.344,6.4697 2.0029,9.7078 0.5929,3.2407 0.415,6.5322 0.4809,9.796 0.066,1.1549 -0.6673,2.0706 -1.0007,3.1064 l -21.865,9.8039 c 0.4545,-0.7623 1.1352,-1.3914 1.3656,-2.2869 0.066,-3.0391 0.448,-6.1605 -0.1448,-9.2267 -0.6648,-3.2229 -1.2683,-6.4684 -1.9871,-9.6781 -0.5401,-3.2829 -1.0903,-6.5138 -0.8697,-9.8619 -0.1383,-3.4997 -0.2174,-7.0061 -0.7411,-10.4773 -0.5271,-4.3245 -1.0792,-8.6154 -0.7959,-12.9888 0.066,-5.6336 0.1318,-11.2678 0.1057,-16.9021 -0.066,-5.5097 -0.085,-11.0195 -0.066,-16.5291 0,-4.8371 0.066,-9.6743 0,-14.5113 -0.1384,-6.1218 -0.3228,-12.2515 -1.153,-18.3285 -1.1608,-7.4967 -2.7328,-14.923 -3.7091,-22.4395 -0.066,-3.6176 -0.079,-7.2345 -0.066,-10.8528 0,-3.3278 0.011,-6.6548 0,-9.9825 0,-2.4027 0,-4.8081 -0.1253,-7.2075 l 21.5864,-10.9991 z"
   inkscape:connector-curvature="0" /><path
   style="fill:#0e2180;fill-opacity:1"
   id="path1937"
   d="m 5909.014,3554.0061 c -0.093,2.1174 -0.093,4.2382 -0.1252,6.3577 -0.066,3.5958 0,7.1917 -0.011,10.7882 -0.2504,3.1096 0.1846,6.1896 0.3822,9.2611 l -21.1608,11.3047 c -0.2766,-3.2216 -0.8992,-6.4236 -0.5402,-9.7064 0.011,-3.5926 0,-7.1853 -0.011,-10.7778 -0.066,-2.0765 -0.066,-4.1545 -0.1252,-6.2291 l 21.5863,-10.9984 z"
   inkscape:connector-curvature="0" /><path
   style="fill:#0e2180;fill-opacity:1"
   id="path1939"
   d="m 5912.2494,3554.0061 c -0.099,2.0496 -0.085,4.1038 -0.112,6.1553 0,3.1835 0,6.3663 0,9.5497 l -21.3333,10.87 c 0,-3.1776 7e-4,-6.355 0,-9.5325 0,-2.0147 -0.011,-4.0314 -0.112,-6.0441 l 21.5858,-10.9984 z"
   inkscape:connector-curvature="0" /><path
   style="fill:#0e2180;fill-opacity:1"
   id="path1941"
   d="m 5879.618,3575.1491 c -2.2624,-1.6906 0.4413,-3.696 0.6127,-5.0993 0.4216,-0.1977 0.5006,-0.6588 0.7523,-0.9869 l 21.7248,-10.4418 c 0,7e-4 -0.066,1.9917 -0.3229,1.9917 -0.6753,0.5995 -1.8243,1.6813 -2.1201,1.8861 l -20.6429,12.6502 z"
   inkscape:connector-curvature="0" /><path
   style="fill:#0e2180;fill-opacity:1"
   id="path1943"
   d="m 5895.2736,3107.3402 c 1.9995,0.072 4.0004,0.066 6.0006,0.072 2.9547,-0.1978 5.8128,0.56 8.6891,1.1411 2.6663,0.6193 5.0261,1.9883 7.4453,2.9969 8.3454,10.864 -20.9643,11.8404 -21.4288,12.015 -1.2557,-3.5716 -4.055,-5.3826 -6.492,-7.7465 -2.8395,-0.8347 -5.7581,0.2437 -8.5712,0.7195 -3.0715,1.454 -6.06,0.7589 -9.2302,0.7016 l 19.5505,-13.9142 c 2.9331,-0.2637 5.8933,-0.1187 8.7333,-1.2829 3.376,-0.3293 6.4949,-1.0152 9.632,0.7459 2.7328,2.5858 5.2779,5.013 6.9362,8.5568 -6.2778,4.64 -14.8808,19.5644 -19.3642,13.173 -2.2538,-0.7634 -4.505,-1.6984 -6.857,-2.203 -2.8137,-0.4282 -5.5584,-1.1464 -8.4441,-0.8077 -2.0661,0 -4.1335,0.011 -6.1989,0.072 l 19.5994,-14.2399 z"
   inkscape:connector-curvature="0" /><path
   style="fill:#0e2180;fill-opacity:1"
   id="path1945"
   d="m 5905.7792,2809.8906 c -0.224,1.1589 1.6022,1.3387 2.3718,1.9817 1.9579,1.5298 2.9778,3.8765 4.3205,5.913 1.5608,2.0416 2.3974,4.4655 3.5136,6.7253 l -21.0349,11.5801 c -1.0094,-2.0351 -1.7309,-4.26 -3.1757,-6.0882 -1.1733,-1.7498 -1.9936,-3.8726 -3.808,-5.0406 -1.3182,-1.2742 -3.7849,-1.771 -3.7731,-4.0729 l 21.5858,-10.9984 z"
   inkscape:connector-curvature="0" /></svg>