<?xml version="1.0" encoding="UTF-8" standalone="no"?>
<!-- Generator: Adobe Illustrator 12.0.0, SVG Export Plug-In . SVG Version: 6.00 Build 51448)  -->

<svg
   xmlns:dc="http://purl.org/dc/elements/1.1/"
   xmlns:cc="http://creativecommons.org/ns#"
   xmlns:rdf="http://www.w3.org/1999/02/22-rdf-syntax-ns#"
   xmlns:svg="http://www.w3.org/2000/svg"
   xmlns="http://www.w3.org/2000/svg"
   xmlns:sodipodi="http://sodipodi.sourceforge.net/DTD/sodipodi-0.dtd"
   xmlns:inkscape="http://www.inkscape.org/namespaces/inkscape"
   version="1.1"
   id="Layer_1"
   width="1600"
   height="1600"
   viewBox="0 0 1600.0001 1600.0001"
   overflow="visible"
   enable-background="new 0 0 1523.643 1258.418"
   xml:space="preserve"
   inkscape:version="0.48.2 r9819"
   sodipodi:docname="logo_nasa.svg"
   style="overflow:visible"
   inkscape:export-filename="/Users/stuartlowe/Projects/strudel/PSL/logo_nasa.png"
   inkscape:export-xdpi="3.5999999"
   inkscape:export-ydpi="3.5999999"><metadata
   id="metadata4142"><rdf:RDF><cc:Work
       rdf:about=""><dc:format>image/svg+xml</dc:format><dc:type
         rdf:resource="http://purl.org/dc/dcmitype/StillImage" /><dc:title></dc:title></cc:Work></rdf:RDF></metadata><defs
   id="defs4140" /><sodipodi:namedview
   pagecolor="#ffffff"
   bordercolor="#666666"
   borderopacity="1"
   objecttolerance="10"
   gridtolerance="10"
   guidetolerance="10"
   inkscape:pageopacity="0"
   inkscape:pageshadow="2"
   inkscape:window-width="488"
   inkscape:window-height="454"
   id="namedview4138"
   showgrid="true"
   inkscape:zoom="0.13260872"
   inkscape:cx="531.88581"
   inkscape:cy="956.74048"
   inkscape:window-x="0"
   inkscape:window-y="0"
   inkscape:window-maximized="0"
   inkscape:current-layer="Layer_1"><inkscape:grid
     type="xygrid"
     id="grid4204"
     empspacing="5"
     visible="true"
     enabled="true"
     snapvisiblegridlinesonly="true" /></sodipodi:namedview>

























































<g
   id="g4144"
   transform="matrix(0.99671501,0,0,0.99671501,80.000005,-169.7941)"><path
     style="fill:#1d427c"
     inkscape:connector-curvature="0"
     id="path4022"
     d="m 78.174,970.78097 c 0,-347.5 281.699,-629.19901 629.199,-629.19901 347.5,0 629.2,281.69901 629.2,629.19901 C 1336.573,1318.281 1054.874,1600 707.373,1600 359.873,1600 78.174,1318.281 78.174,970.78097" /><path
     style="fill:#ffffff"
     inkscape:connector-curvature="0"
     id="path4024"
     d="m 706.143,397.91996 c 0,-3.32 2.676,-5.996 5.996,-5.996 3.32,0 5.996,2.676 5.996,5.996 0,3.32 -2.676,5.996 -5.996,5.996 -3.32,0 -5.996,-2.676 -5.996,-5.996" /><path
     style="fill:#ffffff"
     inkscape:connector-curvature="0"
     id="path4026"
     d="m 739.434,476.03497 c 0,-3.311 2.705,-6.016 6.025,-6.016 3.32,0 5.996,2.705 5.996,6.016 0,3.32 -2.676,6.006 -5.996,6.006 -3.32,0 -6.025,-2.686 -6.025,-6.006" /><path
     style="fill:#ffffff"
     inkscape:connector-curvature="0"
     id="path4028"
     d="m 667.334,467.84197 c 0,-3.32 2.705,-6.006 6.025,-6.006 3.301,0 5.996,2.686 5.996,6.006 0,3.32 -2.695,6.016 -5.996,6.016 -3.32,-0.001 -6.025,-2.696 -6.025,-6.016" /><path
     style="fill:#ffffff"
     inkscape:connector-curvature="0"
     id="path4030"
     d="m 685.381,521.37697 c 0,-3.32 2.676,-5.996 5.996,-5.996 3.32,0 5.996,2.676 5.996,5.996 0,3.32 -2.676,6.006 -5.996,6.006 -3.32,0 -5.996,-2.686 -5.996,-6.006" /><path
     style="fill:#ffffff"
     inkscape:connector-curvature="0"
     id="path4032"
     d="m 740,548.68197 c 0,-3.301 2.676,-6.006 5.996,-6.006 3.32,0 6.025,2.705 6.025,6.006 0,3.34 -2.705,6.016 -6.025,6.016 -3.32,0 -5.996,-2.677 -5.996,-6.016" /><path
     style="fill:#ffffff"
     inkscape:connector-curvature="0"
     id="path4034"
     d="m 832.295,604.96097 c 0,-3.32 2.705,-6.025 6.025,-6.025 3.32,0 6.016,2.705 6.016,6.025 0,3.32 -2.695,5.996 -6.016,5.996 -3.321,0 -6.025,-2.676 -6.025,-5.996" /><path
     style="fill:#ffffff"
     inkscape:connector-curvature="0"
     id="path4036"
     d="m 584.717,517.76397 c 0,-2.9 2.363,-5.264 5.264,-5.264 2.901,0 5.254,2.363 5.254,5.264 0,2.901 -2.354,5.254 -5.254,5.254 -2.9,0 -5.264,-2.354 -5.264,-5.254" /><path
     style="fill:#ffffff"
     inkscape:connector-curvature="0"
     id="path4038"
     d="m 600.039,529.77497 c 0,-2.871 2.354,-5.234 5.264,-5.234 2.871,0 5.234,2.363 5.234,5.234 0,2.9 -2.363,5.264 -5.234,5.264 -2.91,0 -5.264,-2.363 -5.264,-5.264" /><path
     style="fill:#ffffff"
     inkscape:connector-curvature="0"
     id="path4040"
     d="m 615.117,541.98197 c 0,-2.822 2.275,-5.098 5.078,-5.098 2.803,0 5.088,2.275 5.088,5.098 0,2.793 -2.285,5.078 -5.088,5.078 -2.803,0 -5.078,-2.285 -5.078,-5.078" /><path
     style="fill:#ffffff"
     inkscape:connector-curvature="0"
     id="path4042"
     d="m 589.072,556.25997 c 0,-2.764 2.246,-5 4.98,-5 2.764,0 5,2.236 5,5 0,2.764 -2.236,5 -5,5 -2.734,0 -4.98,-2.237 -4.98,-5" /><polyline
     transform="translate(0,341.58196)"
     style="fill:#ffffff"
     id="polyline4044"
     points="817.061,120.254 833.857,116.338 837.754,99.541 841.68,116.338 858.477,120.254 841.68,123.76   837.754,140.977 834.258,123.359 817.061,120.254 " /><path
     style="fill:#ffffff"
     inkscape:connector-curvature="0"
     id="path4046"
     d="m 829.717,461.83597 c 0,-4.434 3.604,-8.057 8.037,-8.057 4.443,0 8.066,3.623 8.066,8.057 0,4.443 -3.623,8.047 -8.066,8.047 -4.434,0 -8.037,-3.604 -8.037,-8.047" /><polyline
     transform="translate(0,341.58196)"
     style="fill:#ffffff"
     id="polyline4048"
     points="526.66,309.756 543.457,305.84 547.373,289.033 551.299,305.84 568.096,309.756 551.299,313.281   547.373,330.479 543.877,312.861 526.66,309.756 " /><path
     style="fill:#ffffff"
     inkscape:connector-curvature="0"
     id="path4050"
     d="m 539.336,651.33797 c 0,-4.434 3.604,-8.037 8.037,-8.037 4.463,0 8.066,3.604 8.066,8.037 0,4.463 -3.604,8.066 -8.066,8.066 -4.434,0 -8.037,-3.603 -8.037,-8.066" /><path
     style="fill:#ffffff"
     inkscape:connector-curvature="0"
     id="path4052"
     d="m 473.516,640.49797 c 0,-2.92 2.363,-5.254 5.264,-5.254 2.901,0 5.254,2.334 5.254,5.254 0,2.9 -2.354,5.244 -5.254,5.244 -2.9,0 -5.264,-2.344 -5.264,-5.244" /><path
     style="fill:#ffffff"
     inkscape:connector-curvature="0"
     id="path4054"
     d="m 494.795,673.91597 c 0,-2.9 2.363,-5.234 5.264,-5.234 2.901,0 5.264,2.334 5.264,5.234 0,2.9 -2.363,5.264 -5.264,5.264 -2.901,0 -5.264,-2.364 -5.264,-5.264" /><path
     style="fill:#ffffff"
     inkscape:connector-curvature="0"
     id="path4056"
     d="m 243.174,1259.619 c 0,-3.32 2.705,-6.016 6.006,-6.016 3.32,0 6.016,2.695 6.016,6.016 0,3.321 -2.695,6.006 -6.016,6.006 -3.301,0 -6.006,-2.686 -6.006,-6.006" /><path
     style="fill:#ffffff"
     inkscape:connector-curvature="0"
     id="path4058"
     d="m 478.32,1104.404 c 0,-3.32 2.676,-6.025 5.996,-6.025 3.32,0 6.025,2.705 6.025,6.025 0,3.32 -2.705,5.996 -6.025,5.996 -3.32,0 -5.996,-2.675 -5.996,-5.996" /><path
     style="fill:#ffffff"
     inkscape:connector-curvature="0"
     id="path4060"
     d="m 320.459,1245.098 c 0,-3.32 2.676,-6.016 5.996,-6.016 3.32,0 6.025,2.695 6.025,6.016 0,3.301 -2.705,6.006 -6.025,6.006 -3.32,0 -5.996,-2.706 -5.996,-6.006" /><path
     style="fill:#ffffff"
     inkscape:connector-curvature="0"
     id="path4062"
     d="m 299.98,1289.336 c 0,-3.32 2.695,-5.996 5.996,-5.996 3.34,0 6.025,2.676 6.025,5.996 0,3.32 -2.686,6.025 -6.025,6.025 -3.3,0 -5.996,-2.705 -5.996,-6.025" /><path
     style="fill:#ffffff"
     inkscape:connector-curvature="0"
     id="path4064"
     d="m 332.334,1313.125 c 0,-3.32 2.705,-6.006 6.025,-6.006 3.32,0 5.996,2.686 5.996,6.006 0,3.311 -2.676,5.996 -5.996,5.996 -3.32,0 -6.025,-2.685 -6.025,-5.996" /><path
     style="fill:#ffffff"
     inkscape:connector-curvature="0"
     id="path4066"
     d="m 408.359,1286.738 c 0,-2.939 2.373,-5.322 5.322,-5.322 2.939,0 5.313,2.383 5.313,5.322 0,2.92 -2.373,5.303 -5.313,5.303 -2.949,0 -5.322,-2.383 -5.322,-5.303" /><path
     style="fill:#ffffff"
     inkscape:connector-curvature="0"
     id="path4068"
     d="m 478.975,1221.982 c 0,-3.32 2.686,-6.025 6.006,-6.025 3.32,0 6.016,2.705 6.016,6.025 0,3.301 -2.695,5.996 -6.016,5.996 -3.321,0 -6.006,-2.695 -6.006,-5.996" /><polyline
     transform="translate(0,341.58196)"
     style="fill:#ffffff"
     id="polyline4070"
     points="469.434,1100.117 486.24,1096.201 490.156,1079.395 494.072,1096.201 510.879,1100.117   494.072,1103.613 490.156,1120.84 486.66,1103.223 469.434,1100.117 " /><path
     style="fill:#ffffff"
     inkscape:connector-curvature="0"
     id="path4072"
     d="m 482.119,1441.6989 c 0,-4.443 3.594,-8.037 8.037,-8.037 4.463,0 8.057,3.594 8.057,8.037 0,4.443 -3.594,8.057 -8.057,8.057 -4.443,0 -8.037,-3.613 -8.037,-8.057" /><path
     style="fill:#ffffff"
     inkscape:connector-curvature="0"
     id="path4074"
     d="m 456.494,1353.6819 c 0,-2.9 2.344,-5.264 5.264,-5.264 2.9,0 5.244,2.363 5.244,5.264 0,2.901 -2.344,5.234 -5.244,5.234 -2.92,0 -5.264,-2.334 -5.264,-5.234" /><path
     style="fill:#ffffff"
     inkscape:connector-curvature="0"
     id="path4076"
     d="m 529.98,1379.0039 c 0,-2.92 2.354,-5.264 5.254,-5.264 2.9,0 5.264,2.344 5.264,5.264 0,2.9 -2.363,5.234 -5.264,5.234 -2.901,0 -5.254,-2.334 -5.254,-5.234" /><path
     style="fill:#ffffff"
     inkscape:connector-curvature="0"
     id="path4078"
     d="m 517.734,1322.637 c 0,-2.9 2.344,-5.254 5.264,-5.254 2.9,0 5.264,2.354 5.264,5.254 0,2.9 -2.363,5.264 -5.264,5.264 -2.92,-10e-4 -5.264,-2.364 -5.264,-5.264" /><path
     style="fill:#ffffff"
     inkscape:connector-curvature="0"
     id="path4080"
     d="m 669.619,1358.5839 c 0,-2.9 2.363,-5.264 5.254,-5.264 2.91,0 5.264,2.363 5.264,5.264 0,2.901 -2.354,5.234 -5.264,5.234 -2.891,0 -5.254,-2.334 -5.254,-5.234" /><path
     style="fill:#ffffff"
     inkscape:connector-curvature="0"
     id="path4082"
     d="m 792.1,1312.021 c 0,-2.9 2.363,-5.264 5.273,-5.264 2.91,0 5.244,2.363 5.244,5.264 0,2.901 -2.334,5.254 -5.244,5.254 -2.91,0 -5.273,-2.353 -5.273,-5.254" /><polyline
     transform="translate(0,341.58196)"
     style="fill:#ffffff"
     id="polyline4084"
     points="1163.174,839.297 1179.981,835.381 1183.897,818.574 1187.823,835.381 1204.62,839.297   1187.823,842.822 1183.897,860.02 1180.401,842.402 1163.174,839.297 " /><path
     style="fill:#ffffff"
     inkscape:connector-curvature="0"
     id="path4086"
     d="m 1175.86,1180.879 c 0,-4.443 3.604,-8.037 8.037,-8.037 4.463,0 8.066,3.594 8.066,8.037 0,4.443 -3.604,8.057 -8.066,8.057 -4.434,0 -8.037,-3.614 -8.037,-8.057" /><path
     style="fill:#ffffff"
     inkscape:connector-curvature="0"
     id="path4088"
     d="m 1025.899,1221.523 c 0,-2.9 2.363,-5.264 5.264,-5.264 2.891,0 5.254,2.363 5.254,5.264 0,2.901 -2.363,5.254 -5.254,5.254 -2.901,0 -5.264,-2.353 -5.264,-5.254" /><path
     style="fill:#ffffff"
     inkscape:connector-curvature="0"
     id="path4090"
     d="m 976.124,1285.879 c 0,-2.9 2.354,-5.254 5.254,-5.254 2.9,0 5.264,2.354 5.264,5.254 0,2.9 -2.363,5.264 -5.264,5.264 -2.901,0 -5.254,-2.364 -5.254,-5.264" /><path
     style="fill:#ffffff"
     inkscape:connector-curvature="0"
     id="path4092"
     d="m 975.284,1210.361 c 0,-2.9 2.334,-5.264 5.234,-5.264 2.92,0 5.264,2.363 5.264,5.264 0,2.901 -2.344,5.254 -5.264,5.254 -2.9,0 -5.234,-2.353 -5.234,-5.254" /><path
     style="fill:#ffffff"
     inkscape:connector-curvature="0"
     id="path4094"
     d="m 1000.157,1421.4649 c 0,-2.9 2.363,-5.244 5.264,-5.244 2.901,0 5.254,2.344 5.254,5.244 0,2.91 -2.354,5.273 -5.254,5.273 -2.9,0 -5.264,-2.363 -5.264,-5.273" /><path
     style="fill:#ffffff"
     inkscape:connector-curvature="0"
     id="path4096"
     d="m 1175.557,1336.904 c 0,-2.9 2.363,-5.264 5.283,-5.264 2.9,0 5.234,2.363 5.234,5.264 0,2.901 -2.334,5.254 -5.234,5.254 -2.92,0 -5.283,-2.353 -5.283,-5.254" /><path
     style="fill:#ffffff"
     inkscape:connector-curvature="0"
     id="path4098"
     d="m 1021.602,1179.463 c 0,-2.9 2.354,-5.264 5.254,-5.264 2.92,0 5.264,2.363 5.264,5.264 0,2.901 -2.344,5.254 -5.264,5.254 -2.9,0 -5.254,-2.354 -5.254,-5.254" /><path
     style="fill:#ffffff"
     inkscape:connector-curvature="0"
     id="path4100"
     d="m 1159.776,1306.484 c 0,-2.9 2.344,-5.264 5.244,-5.264 2.9,0 5.264,2.363 5.264,5.264 0,2.891 -2.363,5.254 -5.264,5.254 -2.901,0 -5.244,-2.363 -5.244,-5.254" /><path
     style="fill:#ffffff"
     inkscape:connector-curvature="0"
     id="path4102"
     d="m 1112.579,1275.576 c 0,-2.9 2.344,-5.254 5.244,-5.254 2.891,0 5.254,2.354 5.254,5.254 0,2.9 -2.363,5.264 -5.254,5.264 -2.901,0 -5.244,-2.363 -5.244,-5.264" /><path
     style="fill:#ffffff"
     inkscape:connector-curvature="0"
     id="path4104"
     d="m 1170.059,1224.102 c 0,-2.9 2.363,-5.264 5.264,-5.264 2.891,0 5.254,2.363 5.254,5.264 0,2.901 -2.363,5.234 -5.254,5.234 -2.901,0 -5.264,-2.334 -5.264,-5.234" /><path
     style="fill:#ffffff"
     inkscape:connector-curvature="0"
     id="path4106"
     d="m 1204.395,1210.361 c 0,-2.9 2.363,-5.264 5.264,-5.264 2.901,0 5.234,2.363 5.234,5.264 0,2.901 -2.334,5.254 -5.234,5.254 -2.9,0 -5.264,-2.353 -5.264,-5.254" /><path
     style="fill:#ffffff"
     inkscape:connector-curvature="0"
     id="path4108"
     d="m 1115.997,1175.176 c 0,-2.9 2.363,-5.254 5.264,-5.254 2.901,0 5.254,2.354 5.254,5.254 0,2.9 -2.354,5.264 -5.254,5.264 -2.9,0 -5.264,-2.364 -5.264,-5.264" /><path
     style="fill:#ffffff"
     inkscape:connector-curvature="0"
     id="path4110"
     d="m 1093.702,1137.422 c 0,-2.92 2.334,-5.264 5.254,-5.264 2.9,0 5.264,2.344 5.264,5.264 0,2.9 -2.363,5.254 -5.264,5.254 -2.92,0 -5.254,-2.354 -5.254,-5.254" /><path
     style="fill:#ffffff"
     inkscape:connector-curvature="0"
     id="path4112"
     d="m 512.559,974.15997 21.982,31.73803 c 0,0 31.24,43.037 51.934,69.98 20.283,26.377 53.086,66.777 53.086,66.777 l 12.48,14.824 c 0,0 33.193,19.863 50.215,34.375 19.346,16.504 32.363,31.865 24.297,44.404 -6.572,10.244 -26.416,4.238 -41.973,-8.018 -23.721,-18.701 -47.461,-61.143 -47.461,-61.143 l -12.227,-17.1 c 0,0 -30.791,-39.6 -50.215,-65.156 -19.639,-25.879 -49.902,-66.729 -49.902,-66.729 l -19.541,-31.75803 7.325,-12.194" /><path
     style="fill:#e32630"
     inkscape:connector-curvature="0"
     id="path4114"
     d="m 1523.643,400.24396 c 0,0 -26.201,50.65401 -117.227,126.99201 -78.037,66.123 -216.279,152.041 -344.355,210.02 C 759.395,874.25797 415.039,959.88297 248.799,1032.764 110.117,1093.584 0,1157.617 0,1157.617 l 19.834,8.262" /><path
     style="fill:#e32630"
     inkscape:connector-curvature="0"
     id="path4116"
     d="m 19.834,1165.879 c 0,0 27.1,-21.963 95.645,-51.299 57.637,-24.277 163.018,-64.463 298.643,-99.238 106.934,-22.76403 207.5,-54.98003 309.951,-79.82403 207.725,-50.361 421.709,-137.734 553.106,-239.414 176.318,-152.207 246.465,-295.85901 246.465,-295.85901" /><path
     style="fill:#ffffff"
     inkscape:connector-curvature="0"
     id="path4118"
     d="m 783.379,930.17597 c 0,-41.514 25,-73.691 89.98,-77.539 33.496,-1.953 47.734,3.145 62.198,9.023 l 23.926,-16.943 2.432,70.82 c 0,0 -34.414,-20.479 -72.657,-22.695 -31.123,-1.826 -35.361,13.76 -35.361,13.76 -7.422,18.555 54.238,28.779 96.124,52.695 36.377,20.801 34.141,56.80703 34.141,56.80703 4.072,65.693 -77.198,80.918 -115.04,77.715 -29.639,-0.996 -53.721,-9.775 -53.721,-9.775 l -26.885,19.541 -0.361,-72.148 c 11.104,9.043 29.941,19.541 52.705,26.104 30.82,8.877 62.021,4.219 69.082,-15.078 7.041,-23.018 -48.623,-30.059 -68.027,-41.699 -33.321,-12.86403 -58.536,-37.44403 -58.536,-70.58803" /><polyline
     transform="translate(0,341.58196)"
     style="fill:#ffffff"
     id="polyline4120"
     points="549.199,539.775 524.775,515.342 637.119,515.342 720.156,720.479 747.021,747.354   600.479,747.354 627.334,720.479 617.578,693.613 534.541,693.613 527.217,722.939 546.758,747.354 471.035,747.354 497.9,720.479   527.217,617.92 558.955,617.92 546.758,659.434 602.92,659.434 568.74,576.396 558.955,617.92 527.217,617.92 " /><polyline
     transform="translate(0,341.58196)"
     style="fill:#ffffff"
     id="polyline4122"
     points="1076.719,539.775 1052.295,515.342 1164.639,515.342 1247.657,720.479 1274.522,747.354   1127.999,747.354 1154.854,720.479 1145.079,693.613 1062.061,693.613 1054.737,722.939 1074.258,747.354 998.555,747.354   1025.42,720.479 1054.737,617.92 1086.475,617.92 1074.258,659.434 1130.44,659.434 1096.241,576.396 1086.475,617.92   1054.737,617.92 " /><path
     style="fill:#e32630"
     inkscape:connector-curvature="0"
     id="path4124"
     d="m 1523.643,402.67596 c 0,0 -156.445,208.92601 -187.07,235.88901" /><path
     style="fill:#e32630"
     inkscape:connector-curvature="0"
     id="path4126"
     d="M 1336.573,638.56397 C 1178.321,777.80197 826.28,1014.316 770.479,1048.74 c -127.744,78.799 -317.656,212.52 -403.965,289.639 -76.992,68.818 -189.551,173.74 -189.551,173.74 l -1.426,21.299 c 0,0 110.195,-115.156 302.08,-250.117 95.459,-66.104 268.701,-184.541 385.664,-256.836 121.817,-75.28303 252.061,-175.14603 339.659,-243.14503 104.58,-81.182 168.975,-152.041 196.738,-183.74 66.816,-76.338 123.965,-196.90401 123.965,-196.90401" /><path
     style="fill:#ffffff"
     inkscape:connector-curvature="0"
     id="path4128"
     d="m 482.637,949.12097 c -61.777,-103.896 -138.154,-306.182 -48.223,-375.479 54.229,-41.807 198.906,-47.539 442.061,251.582 251.163,308.93603 172.266,472.31403 146.504,490.84003 -56.445,40.615 -146.524,0 -146.524,0 l -24.434,-9.766 21.992,4.883 c 0,0 90.586,36.777 141.641,-4.883 47.52,-38.76 58.604,-217.363 -151.417,-473.79903 -130.879,-159.805 -310.02,-311.777 -415.186,-251.543 -105.234,60.303 5.146,299.824 46.709,363.584 l -13.123,4.581" /><polyline
     transform="translate(0,341.58196)"
     style="fill:#ffffff"
     id="polyline4130"
     points="944.815,600.82 959.483,625.234 966.817,620.361 952.159,593.496 944.815,600.82 " /><polyline
     transform="translate(0,341.58196)"
     style="fill:#ffffff"
     id="polyline4132"
     points="373.359,659.434 373.359,539.775 348.936,515.342 427.08,515.342 405.098,539.775 405.098,720.479   431.982,747.354 329.395,747.354 241.475,598.379 241.475,720.479 263.457,747.354 180.42,747.354 207.275,720.479 207.275,539.775   185.303,515.342 287.881,515.342 373.359,659.434 " /><polyline
     transform="translate(0,341.58196)"
     style="fill:#ffffff"
     id="polyline4134"
     points="1112.92,965.615 1129.795,961.68 1133.741,944.795 1137.676,961.68 1154.561,965.615   1137.676,969.141 1133.741,986.436 1130.215,968.74 1112.92,965.615 " /><path
     style="fill:#ffffff"
     inkscape:connector-curvature="0"
     id="path4136"
     d="m 1125.655,1307.197 c 0,-4.453 3.623,-8.076 8.086,-8.076 4.453,0 8.076,3.623 8.076,8.076 0,4.463 -3.623,8.086 -8.076,8.086 -4.463,0 -8.086,-3.623 -8.086,-8.086" /></g>
</svg>